<svg xmlns="http://www.w3.org/2000/svg" xmlns:xlink="http://www.w3.org/1999/xlink" width="500" zoomAndPan="magnify" viewBox="0 0 375 374.999991" height="500" preserveAspectRatio="xMidYMid meet" version="1.0"><defs><g/><clipPath id="c49f13f3e1"><path d="M 72 210 L 164 210 L 164 228.847656 L 72 228.847656 Z M 72 210 " clip-rule="nonzero"/></clipPath></defs><path fill="#27ae60" d="M 64.703125 189.222656 C 61.234375 191.792969 61.398438 194.050781 65.21875 195.328125 C 72.941406 197.90625 80.367188 196.433594 87.582031 193.546875 C 96.964844 189.839844 103.65625 192.773438 113.167969 193.464844 C 117.945312 193.75 125.921875 195.3125 130.09375 192.871094 C 133.851562 191.628906 137.390625 191.113281 141.464844 191.265625 C 146.335938 191.703125 150.804688 192.84375 155.304688 194.746094 C 159.496094 196.519531 164.667969 190.179688 166.789062 187.414062 C 167.199219 186.875 168.296875 185.710938 168.074219 184.863281 C 167.96875 184.273438 164.214844 182.757812 164.871094 182.527344 C 165.703125 182.234375 168.515625 183.546875 168.863281 184.65625 C 169.296875 186.011719 167.867188 187.691406 167.191406 188.648438 C 164.351562 192.648438 159.472656 198.378906 153.992188 196.328125 C 147.296875 193.824219 139.109375 192.527344 132.203125 194.953125 C 126.320312 197.019531 120.609375 196.585938 114.394531 196.601562 C 109.554688 196.613281 104.929688 195 100.125 194.585938 C 93.160156 194.0625 87.632812 197.523438 81 198.460938 C 75.367188 199.125 69.332031 198.65625 64.011719 196.613281 C 57.054688 194.039062 64.179688 188.445312 64.703125 189.222656 " fill-opacity="1" fill-rule="nonzero"/><path fill="#f4a300" d="M 117.359375 152.433594 C 117.839844 156.03125 116.363281 157.246094 114.601562 157.511719 C 110.484375 158.121094 105.164062 159.351562 99.417969 160.921875 C 89.683594 163.585938 71.238281 169.230469 71.78125 182.417969 C 72.1875 191.59375 89.523438 185.386719 94.804688 184.527344 C 107.964844 182.382812 121.910156 182.402344 134.921875 185.445312 C 144.480469 187.679688 164.792969 193.023438 158.25 175.851562 C 155.652344 169.03125 159.355469 171.621094 161.152344 176.34375 C 163.121094 181.535156 163.261719 187.96875 157.0625 190.199219 C 151.023438 192.371094 143.699219 190.515625 137.695312 189.109375 C 124.050781 186.183594 110.339844 186.632812 96.683594 189.246094 C 88.1875 190.875 75.183594 197.363281 67.949219 189.300781 C 62.511719 183.265625 65.855469 173.574219 70.078125 167.933594 C 78.113281 157.195312 92.390625 152.027344 105.132812 149.769531 C 109.800781 148.945312 116.539062 146.34375 117.359375 152.433594 " fill-opacity="1" fill-rule="nonzero"/><path fill="#f4a300" d="M 137.007812 161.925781 C 137.007812 164.007812 134.9375 165.695312 132.390625 165.695312 C 129.839844 165.695312 127.773438 164.007812 127.773438 161.925781 C 127.773438 159.84375 129.839844 158.15625 132.390625 158.15625 C 134.9375 158.15625 137.007812 159.84375 137.007812 161.925781 " fill-opacity="1" fill-rule="nonzero"/><path fill="#f4a300" d="M 147.375 163.433594 C 147.375 164.367188 146.445312 165.128906 145.300781 165.128906 C 144.15625 165.128906 143.226562 164.367188 143.226562 163.433594 C 143.226562 162.5 144.15625 161.742188 145.300781 161.742188 C 146.445312 161.742188 147.375 162.5 147.375 163.433594 " fill-opacity="1" fill-rule="nonzero"/><path fill="#f4a300" d="M 149.070312 172.601562 C 149.070312 174.683594 147.003906 176.371094 144.453125 176.371094 C 141.902344 176.371094 139.835938 174.683594 139.835938 172.601562 C 139.835938 170.519531 141.902344 168.832031 144.453125 168.832031 C 147.003906 168.832031 149.070312 170.519531 149.070312 172.601562 " fill-opacity="1" fill-rule="nonzero"/><path fill="#f4a300" d="M 134.800781 170.632812 C 134.800781 171.722656 133.71875 172.601562 132.390625 172.601562 C 131.058594 172.601562 129.976562 171.722656 129.976562 170.632812 C 129.976562 169.546875 131.058594 168.664062 132.390625 168.664062 C 133.71875 168.664062 134.800781 169.546875 134.800781 170.632812 " fill-opacity="1" fill-rule="nonzero"/><path fill="#7b3f00" d="M 91.558594 209.300781 C 86.6875 212.085938 83.246094 203.960938 78.039062 206.269531 C 69.425781 210.089844 58.761719 207.640625 60.019531 200.496094 C 60.421875 201.757812 61.214844 202.984375 62.089844 203.488281 C 64.019531 204.585938 66.320312 204.894531 68.503906 205 C 76.191406 204.828125 84.125 204.46875 91.769531 205.503906 C 94.03125 205.8125 96.398438 205.726562 98.789062 205.425781 C 96.207031 206.679688 93.753906 208.027344 91.558594 209.300781 Z M 172.875 196.695312 C 171.835938 198.917969 172.75 201.71875 168.941406 202.601562 C 167.417969 203.050781 166.179688 203.066406 164.617188 203.226562 C 169.039062 200.507812 174.5625 193.855469 169.554688 190.640625 C 169.460938 190.765625 169.367188 190.890625 169.273438 191.011719 C 173.394531 194.699219 165.964844 201.328125 162.640625 202.433594 C 157.640625 204.113281 151.324219 204.675781 146.144531 203.683594 C 144.117188 203.296875 142.777344 202.539062 141.171875 201.4375 C 136.96875 198.542969 130.859375 198.269531 125.9375 198.167969 C 114.753906 197.941406 104.269531 203.832031 93.128906 203.238281 C 84.964844 202.480469 76.449219 202.496094 68.511719 202.769531 C 64.917969 202.65625 59.324219 201.976562 61.382812 196.917969 C 60.644531 196.941406 60.1875 197.28125 59.949219 197.792969 C 56.195312 203.082031 60.410156 208.515625 65.441406 211.570312 C 70.9375 214.929688 79.839844 215.417969 85.933594 214.148438 C 88.378906 213.617188 93.328125 211.09375 95.445312 210.191406 C 102.070312 207.382812 107.265625 208.945312 114.316406 209.152344 C 124.898438 209.476562 134.980469 213.285156 145.667969 211.613281 C 152.347656 210.570312 159.042969 209.636719 165.738281 208.710938 C 169.316406 208.585938 177.816406 202.109375 172.875 196.695312 " fill-opacity="1" fill-rule="nonzero"/><g clip-path="url(#c49f13f3e1)"><path fill="#f4a300" d="M 163.507812 210.066406 C 163.507812 217.3125 143.195312 228.804688 118.140625 228.804688 C 93.089844 228.804688 71.078125 222.769531 72.777344 215.679688 C 73.140625 214.171875 89.980469 220.503906 100.3125 212.085938 C 104.90625 207.734375 134.546875 217.527344 163.507812 210.066406 " fill-opacity="1" fill-rule="nonzero"/></g><g fill="#d7263d" fill-opacity="1"><g transform="translate(181.590785, 225.392092)"><g><path d="M 5.65625 -6.484375 L 5.65625 -2.78125 C 5.65625 -1.75 5.40625 -0.96875 4.90625 -0.4375 C 4.46875 0.03125 3.863281 0.265625 3.09375 0.265625 C 2.332031 0.265625 1.742188 0.0820312 1.328125 -0.28125 C 0.785156 -0.78125 0.515625 -1.613281 0.515625 -2.78125 L 0.515625 -6.71875 L 1.609375 -6.71875 L 1.609375 -2.78125 C 1.609375 -2.363281 1.648438 -2.007812 1.734375 -1.71875 C 1.816406 -1.425781 1.9375 -1.207031 2.09375 -1.0625 C 2.320312 -0.820312 2.664062 -0.703125 3.125 -0.703125 C 3.476562 -0.703125 3.757812 -0.785156 3.96875 -0.953125 C 4.1875 -1.128906 4.351562 -1.40625 4.46875 -1.78125 C 4.5625 -2.039062 4.609375 -2.375 4.609375 -2.78125 L 4.609375 -6.71875 L 5.65625 -6.71875 Z M 5.65625 -6.484375 "/></g></g></g><g fill="#d7263d" fill-opacity="1"><g transform="translate(188.144945, 225.392092)"><g><path d="M 1.390625 -4.546875 C 1.765625 -4.753906 2.125 -4.867188 2.46875 -4.890625 C 2.675781 -4.890625 2.859375 -4.875 3.015625 -4.84375 C 3.171875 -4.820312 3.3125 -4.785156 3.4375 -4.734375 C 3.675781 -4.617188 3.875 -4.460938 4.03125 -4.265625 C 4.195312 -4.054688 4.28125 -3.769531 4.28125 -3.40625 L 4.28125 0.234375 L 3.21875 0.234375 L 3.21875 -3.25 C 3.21875 -3.425781 3.1875 -3.550781 3.125 -3.625 C 2.96875 -3.800781 2.726562 -3.890625 2.40625 -3.890625 C 2.132812 -3.878906 1.859375 -3.8125 1.578125 -3.6875 C 1.554688 -3.675781 1.535156 -3.664062 1.515625 -3.65625 C 1.503906 -3.65625 1.488281 -3.648438 1.46875 -3.640625 C 1.457031 -3.628906 1.441406 -3.617188 1.421875 -3.609375 C 1.410156 -3.609375 1.398438 -3.609375 1.390625 -3.609375 L 1.390625 0.234375 L 0.328125 0.234375 L 0.328125 -4.84375 L 1.140625 -4.90625 L 1.390625 -4.921875 Z M 1.390625 -4.546875 "/></g></g></g><g fill="#d7263d" fill-opacity="1"><g transform="translate(193.308554, 225.392092)"><g><path d="M 1.578125 -4.671875 L 1.578125 0.234375 L 0.515625 0.234375 L 0.515625 -4.84375 L 0.734375 -4.859375 L 1.328125 -4.90625 L 1.578125 -4.921875 Z M 0.5625 -5.84375 C 0.46875 -5.96875 0.421875 -6.117188 0.421875 -6.296875 C 0.421875 -6.484375 0.472656 -6.632812 0.578125 -6.75 C 0.703125 -6.882812 0.859375 -6.953125 1.046875 -6.953125 C 1.128906 -6.953125 1.210938 -6.9375 1.296875 -6.90625 C 1.378906 -6.875 1.453125 -6.828125 1.515625 -6.765625 C 1.578125 -6.703125 1.625 -6.628906 1.65625 -6.546875 C 1.6875 -6.460938 1.703125 -6.375 1.703125 -6.28125 C 1.703125 -6.070312 1.628906 -5.910156 1.484375 -5.796875 C 1.359375 -5.691406 1.207031 -5.640625 1.03125 -5.640625 C 0.832031 -5.640625 0.675781 -5.707031 0.5625 -5.84375 Z M 0.5625 -5.84375 "/></g></g></g><g fill="#d7263d" fill-opacity="1"><g transform="translate(195.793013, 225.392092)"><g><path d="M 3.65625 0.1875 C 3.457031 0.207031 3.285156 0.222656 3.140625 0.234375 C 2.992188 0.253906 2.851562 0.265625 2.71875 0.265625 C 1.945312 0.265625 1.351562 0.0625 0.9375 -0.34375 C 0.53125 -0.757812 0.328125 -1.351562 0.328125 -2.125 C 0.328125 -2.5625 0.382812 -2.953125 0.5 -3.296875 C 0.625 -3.640625 0.8125 -3.929688 1.0625 -4.171875 C 1.539062 -4.660156 2.171875 -4.90625 2.953125 -4.90625 C 3.421875 -4.90625 3.894531 -4.832031 4.375 -4.6875 C 4.394531 -4.675781 4.421875 -4.671875 4.453125 -4.671875 C 4.492188 -4.671875 4.53125 -4.664062 4.5625 -4.65625 C 4.59375 -4.644531 4.625 -4.617188 4.65625 -4.578125 L 4.71875 -4.5 L 4.71875 2.5 L 3.90625 2.5625 L 3.65625 2.578125 Z M 3.65625 -3.78125 C 3.289062 -3.851562 3.046875 -3.894531 2.921875 -3.90625 C 2.460938 -3.90625 2.09375 -3.753906 1.8125 -3.453125 C 1.53125 -3.148438 1.390625 -2.710938 1.390625 -2.140625 C 1.390625 -1.585938 1.535156 -1.203125 1.828125 -0.984375 C 2.046875 -0.816406 2.320312 -0.734375 2.65625 -0.734375 C 2.96875 -0.734375 3.300781 -0.753906 3.65625 -0.796875 Z M 3.65625 -3.78125 "/></g></g></g><g fill="#d7263d" fill-opacity="1"><g transform="translate(201.308889, 225.392092)"><g><path d="M 1.828125 -0.8125 C 1.941406 -0.769531 2.128906 -0.75 2.390625 -0.75 C 2.484375 -0.75 2.59375 -0.765625 2.71875 -0.796875 C 2.84375 -0.828125 2.976562 -0.875 3.125 -0.9375 C 3.144531 -0.945312 3.164062 -0.957031 3.1875 -0.96875 C 3.207031 -0.976562 3.226562 -0.988281 3.25 -1 C 3.269531 -1.007812 3.289062 -1.015625 3.3125 -1.015625 L 3.3125 -4.84375 L 4.125 -4.90625 L 4.375 -4.921875 L 4.375 0.234375 L 3.3125 0.234375 L 3.3125 -0.0625 C 2.925781 0.15625 2.535156 0.265625 2.140625 0.265625 C 1.472656 0.265625 0.984375 0.0546875 0.671875 -0.359375 C 0.503906 -0.566406 0.421875 -0.851562 0.421875 -1.21875 L 0.421875 -4.84375 L 1.234375 -4.90625 L 1.484375 -4.921875 L 1.484375 -1.375 C 1.484375 -1.101562 1.597656 -0.914062 1.828125 -0.8125 Z M 1.828125 -0.8125 "/></g></g></g><g fill="#d7263d" fill-opacity="1"><g transform="translate(206.565197, 225.392092)"><g><path d="M 1.34375 -2.125 C 1.34375 -1.632812 1.445312 -1.28125 1.65625 -1.0625 C 1.863281 -0.84375 2.203125 -0.734375 2.671875 -0.734375 C 3.085938 -0.734375 3.460938 -0.789062 3.796875 -0.90625 C 3.835938 -0.914062 3.875 -0.925781 3.90625 -0.9375 C 3.9375 -0.945312 3.957031 -0.953125 3.96875 -0.953125 L 4.21875 -1.078125 L 4.296875 -0.8125 L 4.421875 -0.328125 L 4.46875 -0.140625 L 4.328125 -0.0625 C 4.078125 0.0820312 3.648438 0.1875 3.046875 0.25 C 2.960938 0.257812 2.875 0.265625 2.78125 0.265625 C 2.695312 0.265625 2.609375 0.265625 2.515625 0.265625 C 1.953125 0.265625 1.472656 0.117188 1.078125 -0.171875 C 0.546875 -0.566406 0.28125 -1.210938 0.28125 -2.109375 C 0.28125 -2.546875 0.335938 -2.9375 0.453125 -3.28125 C 0.566406 -3.625 0.742188 -3.921875 0.984375 -4.171875 C 1.460938 -4.660156 2.039062 -4.90625 2.71875 -4.90625 C 3.40625 -4.90625 3.925781 -4.675781 4.28125 -4.21875 C 4.539062 -3.851562 4.671875 -3.390625 4.671875 -2.828125 C 4.671875 -2.691406 4.664062 -2.554688 4.65625 -2.421875 L 4.640625 -2.203125 L 1.34375 -2.203125 Z M 2.75 -3.859375 C 2.425781 -3.859375 2.148438 -3.757812 1.921875 -3.5625 C 1.765625 -3.4375 1.632812 -3.273438 1.53125 -3.078125 L 3.640625 -3.078125 C 3.628906 -3.191406 3.601562 -3.289062 3.5625 -3.375 C 3.53125 -3.46875 3.488281 -3.539062 3.4375 -3.59375 C 3.394531 -3.65625 3.335938 -3.703125 3.265625 -3.734375 C 3.203125 -3.773438 3.132812 -3.804688 3.0625 -3.828125 L 3.046875 -3.828125 C 2.992188 -3.835938 2.941406 -3.84375 2.890625 -3.84375 C 2.847656 -3.851562 2.800781 -3.859375 2.75 -3.859375 Z M 2.75 -3.859375 "/></g></g></g><g fill="#d7263d" fill-opacity="1"><g transform="translate(211.812238, 225.392092)"><g/></g></g><g fill="#d7263d" fill-opacity="1"><g transform="translate(215.047604, 225.392092)"><g><path d="M 2.015625 0 L 2.015625 -5.703125 L 0.171875 -5.703125 L 0.1875 -5.953125 L 0.234375 -6.5 L 0.25 -6.71875 L 4.90625 -6.71875 L 4.890625 -6.46875 L 4.84375 -5.90625 L 4.828125 -5.703125 L 3.0625 -5.703125 L 3.0625 0.234375 L 2.015625 0.234375 Z M 2.015625 0 "/></g></g></g><g fill="#d7263d" fill-opacity="1"><g transform="translate(220.591298, 225.392092)"><g><path d="M 0.375 -4.34375 C 1.070312 -4.6875 1.695312 -4.867188 2.25 -4.890625 C 2.6875 -4.890625 3.023438 -4.832031 3.265625 -4.71875 C 3.359375 -4.675781 3.441406 -4.628906 3.515625 -4.578125 C 3.585938 -4.535156 3.65625 -4.484375 3.71875 -4.421875 C 3.78125 -4.359375 3.835938 -4.289062 3.890625 -4.21875 C 4.054688 -3.988281 4.140625 -3.6875 4.140625 -3.3125 L 4.140625 0.234375 L 3.078125 0.234375 L 3.078125 -0.03125 C 2.378906 0.164062 1.910156 0.265625 1.671875 0.265625 L 1.65625 0.265625 C 1.007812 0.265625 0.5625 0.0546875 0.3125 -0.359375 C 0.21875 -0.503906 0.164062 -0.65625 0.15625 -0.8125 C 0.144531 -0.9375 0.140625 -1.039062 0.140625 -1.125 C 0.140625 -1.414062 0.25 -1.671875 0.46875 -1.890625 C 0.5625 -1.992188 0.671875 -2.078125 0.796875 -2.140625 C 0.921875 -2.210938 1.050781 -2.269531 1.1875 -2.3125 C 1.382812 -2.351562 1.640625 -2.394531 1.953125 -2.4375 C 2.273438 -2.488281 2.648438 -2.535156 3.078125 -2.578125 L 3.078125 -3.109375 C 3.078125 -3.390625 3.015625 -3.585938 2.890625 -3.703125 C 2.765625 -3.828125 2.550781 -3.890625 2.25 -3.890625 C 1.789062 -3.890625 1.285156 -3.753906 0.734375 -3.484375 L 0.515625 -3.359375 L 0.421875 -3.609375 L 0.265625 -4.046875 L 0.1875 -4.25 Z M 1.171875 -1.0625 C 1.171875 -0.90625 1.21875 -0.789062 1.3125 -0.71875 C 1.40625 -0.65625 1.585938 -0.625 1.859375 -0.625 C 2.265625 -0.625 2.671875 -0.703125 3.078125 -0.859375 L 3.078125 -1.765625 C 2.273438 -1.640625 1.78125 -1.546875 1.59375 -1.484375 C 1.4375 -1.441406 1.328125 -1.382812 1.265625 -1.3125 C 1.203125 -1.25 1.171875 -1.164062 1.171875 -1.0625 Z M 1.171875 -1.0625 "/></g></g></g><g fill="#d7263d" fill-opacity="1"><g transform="translate(225.337734, 225.392092)"><g><path d="M 3.109375 -3.796875 C 2.910156 -3.867188 2.632812 -3.90625 2.28125 -3.90625 C 1.9375 -3.90625 1.679688 -3.847656 1.515625 -3.734375 C 1.378906 -3.640625 1.3125 -3.535156 1.3125 -3.421875 C 1.3125 -3.304688 1.34375 -3.222656 1.40625 -3.171875 C 1.507812 -3.085938 1.640625 -3.019531 1.796875 -2.96875 C 1.984375 -2.90625 2.179688 -2.84375 2.390625 -2.78125 C 2.503906 -2.75 2.617188 -2.710938 2.734375 -2.671875 C 2.847656 -2.628906 2.953125 -2.578125 3.046875 -2.515625 C 3.296875 -2.390625 3.484375 -2.222656 3.609375 -2.015625 C 3.742188 -1.816406 3.8125 -1.585938 3.8125 -1.328125 C 3.8125 -0.816406 3.632812 -0.414062 3.28125 -0.125 C 3.207031 -0.0703125 3.128906 -0.0234375 3.046875 0.015625 C 2.960938 0.0546875 2.875 0.09375 2.78125 0.125 C 2.695312 0.15625 2.601562 0.179688 2.5 0.203125 C 2.394531 0.222656 2.285156 0.238281 2.171875 0.25 C 2.066406 0.257812 1.953125 0.265625 1.828125 0.265625 C 1.515625 0.265625 1.21875 0.234375 0.9375 0.171875 C 0.632812 0.109375 0.398438 0.015625 0.234375 -0.109375 L 0.078125 -0.21875 L 0.15625 -0.390625 L 0.359375 -0.875 L 0.484375 -1.171875 L 0.71875 -0.96875 C 0.832031 -0.875 1.082031 -0.800781 1.46875 -0.75 C 1.59375 -0.726562 1.722656 -0.71875 1.859375 -0.71875 C 2.128906 -0.71875 2.351562 -0.773438 2.53125 -0.890625 C 2.582031 -0.921875 2.625 -0.953125 2.65625 -0.984375 C 2.6875 -1.023438 2.707031 -1.066406 2.71875 -1.109375 C 2.738281 -1.160156 2.75 -1.222656 2.75 -1.296875 C 2.75 -1.410156 2.71875 -1.5 2.65625 -1.5625 C 2.550781 -1.644531 2.414062 -1.71875 2.25 -1.78125 C 2.164062 -1.8125 2.070312 -1.84375 1.96875 -1.875 C 1.875 -1.90625 1.773438 -1.9375 1.671875 -1.96875 C 1.429688 -2.019531 1.210938 -2.097656 1.015625 -2.203125 C 0.796875 -2.304688 0.617188 -2.441406 0.484375 -2.609375 C 0.421875 -2.671875 0.367188 -2.738281 0.328125 -2.8125 C 0.296875 -2.894531 0.269531 -2.976562 0.25 -3.0625 C 0.238281 -3.15625 0.234375 -3.25 0.234375 -3.34375 C 0.234375 -3.820312 0.421875 -4.207031 0.796875 -4.5 C 1.140625 -4.769531 1.597656 -4.90625 2.171875 -4.90625 C 2.304688 -4.90625 2.453125 -4.894531 2.609375 -4.875 C 2.742188 -4.863281 2.863281 -4.851562 2.96875 -4.84375 L 2.984375 -4.84375 L 3.375 -4.765625 L 3.625 -4.71875 L 3.5625 -4.46875 L 3.40625 -3.953125 L 3.34375 -3.71875 Z M 3.109375 -3.796875 "/></g></g></g><g fill="#d7263d" fill-opacity="1"><g transform="translate(229.75971, 225.392092)"><g><path d="M 2.84375 0 C 2.6875 0.15625 2.429688 0.234375 2.078125 0.234375 C 1.597656 0.234375 1.265625 0.0976562 1.078125 -0.171875 C 0.796875 -0.441406 0.65625 -0.796875 0.65625 -1.234375 L 0.65625 -3.859375 L 0.109375 -3.859375 L 0.140625 -4.125 L 0.21875 -4.671875 L 0.265625 -4.859375 L 0.65625 -4.859375 L 0.65625 -5.765625 L 0.875 -5.78125 L 1.46875 -5.84375 L 1.71875 -5.859375 L 1.71875 -4.859375 L 2.796875 -4.859375 L 2.796875 -3.859375 L 1.71875 -3.859375 L 1.71875 -1.09375 C 1.71875 -0.96875 1.738281 -0.882812 1.78125 -0.84375 C 1.832031 -0.800781 1.921875 -0.78125 2.046875 -0.78125 C 2.179688 -0.78125 2.328125 -0.8125 2.484375 -0.875 L 2.734375 -0.984375 L 2.78125 -0.71875 L 2.90625 -0.21875 L 2.921875 -0.09375 Z M 2.84375 0 "/></g></g></g><g fill="#d7263d" fill-opacity="1"><g transform="translate(233.300994, 225.392092)"><g><path d="M 1.34375 -2.125 C 1.34375 -1.632812 1.445312 -1.28125 1.65625 -1.0625 C 1.863281 -0.84375 2.203125 -0.734375 2.671875 -0.734375 C 3.085938 -0.734375 3.460938 -0.789062 3.796875 -0.90625 C 3.835938 -0.914062 3.875 -0.925781 3.90625 -0.9375 C 3.9375 -0.945312 3.957031 -0.953125 3.96875 -0.953125 L 4.21875 -1.078125 L 4.296875 -0.8125 L 4.421875 -0.328125 L 4.46875 -0.140625 L 4.328125 -0.0625 C 4.078125 0.0820312 3.648438 0.1875 3.046875 0.25 C 2.960938 0.257812 2.875 0.265625 2.78125 0.265625 C 2.695312 0.265625 2.609375 0.265625 2.515625 0.265625 C 1.953125 0.265625 1.472656 0.117188 1.078125 -0.171875 C 0.546875 -0.566406 0.28125 -1.210938 0.28125 -2.109375 C 0.28125 -2.546875 0.335938 -2.9375 0.453125 -3.28125 C 0.566406 -3.625 0.742188 -3.921875 0.984375 -4.171875 C 1.460938 -4.660156 2.039062 -4.90625 2.71875 -4.90625 C 3.40625 -4.90625 3.925781 -4.675781 4.28125 -4.21875 C 4.539062 -3.851562 4.671875 -3.390625 4.671875 -2.828125 C 4.671875 -2.691406 4.664062 -2.554688 4.65625 -2.421875 L 4.640625 -2.203125 L 1.34375 -2.203125 Z M 2.75 -3.859375 C 2.425781 -3.859375 2.148438 -3.757812 1.921875 -3.5625 C 1.765625 -3.4375 1.632812 -3.273438 1.53125 -3.078125 L 3.640625 -3.078125 C 3.628906 -3.191406 3.601562 -3.289062 3.5625 -3.375 C 3.53125 -3.46875 3.488281 -3.539062 3.4375 -3.59375 C 3.394531 -3.65625 3.335938 -3.703125 3.265625 -3.734375 C 3.203125 -3.773438 3.132812 -3.804688 3.0625 -3.828125 L 3.046875 -3.828125 C 2.992188 -3.835938 2.941406 -3.84375 2.890625 -3.84375 C 2.847656 -3.851562 2.800781 -3.859375 2.75 -3.859375 Z M 2.75 -3.859375 "/></g></g></g><g fill="#d7263d" fill-opacity="1"><g transform="translate(238.548036, 225.392092)"><g/></g></g><g fill="#d7263d" fill-opacity="1"><g transform="translate(241.783401, 225.392092)"><g><path d="M 4.0625 -5.703125 L 1.609375 -5.703125 L 1.609375 -3.71875 L 4.125 -3.71875 L 4.109375 -3.46875 L 4.0625 -2.921875 L 4.046875 -2.703125 L 1.609375 -2.703125 L 1.609375 -0.78125 L 4.546875 -0.78125 L 4.53125 -0.53125 L 4.484375 0.015625 L 4.46875 0.234375 L 0.515625 0.234375 L 0.515625 -6.71875 L 4.359375 -6.71875 L 4.34375 -6.46875 L 4.296875 -5.90625 L 4.28125 -5.703125 Z M 4.0625 -5.703125 "/></g></g></g><g fill="#d7263d" fill-opacity="1"><g transform="translate(246.919201, 225.392092)"><g><path d="M 0.359375 -4.859375 L 1.03125 -4.90625 L 1.21875 -4.921875 L 1.265625 -4.75 L 2.40625 -1.40625 L 3.625 -4.71875 L 3.671875 -4.859375 L 3.828125 -4.859375 L 4.5 -4.90625 L 4.859375 -4.9375 L 4.71875 -4.59375 L 2.859375 0.078125 L 2.796875 0.234375 L 1.921875 0.234375 L 1.875 0.078125 L 0.15625 -4.546875 L 0.046875 -4.84375 Z M 0.359375 -4.859375 "/></g></g></g><g fill="#d7263d" fill-opacity="1"><g transform="translate(252.277485, 225.392092)"><g><path d="M 1.34375 -2.125 C 1.34375 -1.632812 1.445312 -1.28125 1.65625 -1.0625 C 1.863281 -0.84375 2.203125 -0.734375 2.671875 -0.734375 C 3.085938 -0.734375 3.460938 -0.789062 3.796875 -0.90625 C 3.835938 -0.914062 3.875 -0.925781 3.90625 -0.9375 C 3.9375 -0.945312 3.957031 -0.953125 3.96875 -0.953125 L 4.21875 -1.078125 L 4.296875 -0.8125 L 4.421875 -0.328125 L 4.46875 -0.140625 L 4.328125 -0.0625 C 4.078125 0.0820312 3.648438 0.1875 3.046875 0.25 C 2.960938 0.257812 2.875 0.265625 2.78125 0.265625 C 2.695312 0.265625 2.609375 0.265625 2.515625 0.265625 C 1.953125 0.265625 1.472656 0.117188 1.078125 -0.171875 C 0.546875 -0.566406 0.28125 -1.210938 0.28125 -2.109375 C 0.28125 -2.546875 0.335938 -2.9375 0.453125 -3.28125 C 0.566406 -3.625 0.742188 -3.921875 0.984375 -4.171875 C 1.460938 -4.660156 2.039062 -4.90625 2.71875 -4.90625 C 3.40625 -4.90625 3.925781 -4.675781 4.28125 -4.21875 C 4.539062 -3.851562 4.671875 -3.390625 4.671875 -2.828125 C 4.671875 -2.691406 4.664062 -2.554688 4.65625 -2.421875 L 4.640625 -2.203125 L 1.34375 -2.203125 Z M 2.75 -3.859375 C 2.425781 -3.859375 2.148438 -3.757812 1.921875 -3.5625 C 1.765625 -3.4375 1.632812 -3.273438 1.53125 -3.078125 L 3.640625 -3.078125 C 3.628906 -3.191406 3.601562 -3.289062 3.5625 -3.375 C 3.53125 -3.46875 3.488281 -3.539062 3.4375 -3.59375 C 3.394531 -3.65625 3.335938 -3.703125 3.265625 -3.734375 C 3.203125 -3.773438 3.132812 -3.804688 3.0625 -3.828125 L 3.046875 -3.828125 C 2.992188 -3.835938 2.941406 -3.84375 2.890625 -3.84375 C 2.847656 -3.851562 2.800781 -3.859375 2.75 -3.859375 Z M 2.75 -3.859375 "/></g></g></g><g fill="#d7263d" fill-opacity="1"><g transform="translate(257.524527, 225.392092)"><g><path d="M 2.859375 -3.78125 C 2.796875 -3.820312 2.726562 -3.84375 2.65625 -3.84375 C 2.601562 -3.84375 2.5625 -3.84375 2.53125 -3.84375 L 2.53125 -3.828125 L 2.46875 -3.828125 C 2.425781 -3.828125 2.378906 -3.820312 2.328125 -3.8125 C 2.285156 -3.800781 2.238281 -3.785156 2.1875 -3.765625 C 2.144531 -3.753906 2.097656 -3.734375 2.046875 -3.703125 C 1.992188 -3.679688 1.945312 -3.648438 1.90625 -3.609375 C 1.875 -3.585938 1.84375 -3.566406 1.8125 -3.546875 C 1.789062 -3.535156 1.769531 -3.519531 1.75 -3.5 C 1.613281 -3.382812 1.492188 -3.269531 1.390625 -3.15625 L 1.390625 0.234375 L 0.328125 0.234375 L 0.328125 -4.84375 L 1.140625 -4.90625 L 1.390625 -4.921875 L 1.390625 -4.25 C 1.460938 -4.320312 1.535156 -4.382812 1.609375 -4.4375 C 1.929688 -4.6875 2.253906 -4.820312 2.578125 -4.84375 C 2.628906 -4.84375 2.703125 -4.84375 2.796875 -4.84375 C 2.910156 -4.84375 3.070312 -4.816406 3.28125 -4.765625 L 3.53125 -4.6875 L 3.421875 -4.453125 L 3.1875 -3.890625 L 3.078125 -3.65625 Z M 2.859375 -3.78125 "/></g></g></g><g fill="#d7263d" fill-opacity="1"><g transform="translate(261.204871, 225.392092)"><g><path d="M 0.359375 -4.859375 L 1.03125 -4.90625 L 1.21875 -4.921875 L 1.265625 -4.75 L 2.453125 -1.09375 L 4 -4.71875 L 4.046875 -4.859375 L 5.203125 -4.859375 L 5.0625 -4.546875 L 1.984375 2.40625 L 1.921875 2.546875 L 0.859375 2.546875 L 1 2.21875 L 1.875 0.234375 L 1.859375 0.234375 L 1.796875 0.078125 L 0.140625 -4.5625 L 0.046875 -4.84375 Z M 0.359375 -4.859375 "/></g></g></g><g fill="#d7263d" fill-opacity="1"><g transform="translate(266.915434, 225.392092)"><g><path d="M 2.953125 -4.90625 C 3.222656 -4.90625 3.488281 -4.851562 3.75 -4.75 L 3.75 -7.109375 L 3.96875 -7.140625 L 4.5625 -7.1875 L 4.8125 -7.203125 L 4.8125 0.015625 L 4.59375 0.015625 C 4.53125 0.015625 4.445312 0.0234375 4.34375 0.046875 C 4.238281 0.078125 4.117188 0.109375 3.984375 0.140625 C 3.847656 0.171875 3.722656 0.191406 3.609375 0.203125 C 3.378906 0.222656 3.179688 0.238281 3.015625 0.25 C 2.859375 0.257812 2.738281 0.265625 2.65625 0.265625 C 2.082031 0.265625 1.601562 0.117188 1.21875 -0.171875 C 0.6875 -0.578125 0.421875 -1.226562 0.421875 -2.125 C 0.421875 -2.414062 0.445312 -2.679688 0.5 -2.921875 C 0.550781 -3.171875 0.628906 -3.398438 0.734375 -3.609375 C 0.847656 -3.828125 0.988281 -4.015625 1.15625 -4.171875 C 1.632812 -4.660156 2.234375 -4.90625 2.953125 -4.90625 Z M 3.75 -3.796875 C 3.632812 -3.828125 3.519531 -3.851562 3.40625 -3.875 C 3.300781 -3.894531 3.191406 -3.90625 3.078125 -3.90625 C 2.578125 -3.90625 2.1875 -3.753906 1.90625 -3.453125 C 1.625 -3.148438 1.484375 -2.710938 1.484375 -2.140625 C 1.484375 -1.585938 1.628906 -1.203125 1.921875 -0.984375 C 2.140625 -0.816406 2.414062 -0.734375 2.75 -0.734375 C 3.0625 -0.734375 3.394531 -0.753906 3.75 -0.796875 Z M 3.75 -3.796875 "/></g></g></g><g fill="#d7263d" fill-opacity="1"><g transform="translate(272.33861, 225.392092)"><g><path d="M 0.375 -4.34375 C 1.070312 -4.6875 1.695312 -4.867188 2.25 -4.890625 C 2.6875 -4.890625 3.023438 -4.832031 3.265625 -4.71875 C 3.359375 -4.675781 3.441406 -4.628906 3.515625 -4.578125 C 3.585938 -4.535156 3.65625 -4.484375 3.71875 -4.421875 C 3.78125 -4.359375 3.835938 -4.289062 3.890625 -4.21875 C 4.054688 -3.988281 4.140625 -3.6875 4.140625 -3.3125 L 4.140625 0.234375 L 3.078125 0.234375 L 3.078125 -0.03125 C 2.378906 0.164062 1.910156 0.265625 1.671875 0.265625 L 1.65625 0.265625 C 1.007812 0.265625 0.5625 0.0546875 0.3125 -0.359375 C 0.21875 -0.503906 0.164062 -0.65625 0.15625 -0.8125 C 0.144531 -0.9375 0.140625 -1.039062 0.140625 -1.125 C 0.140625 -1.414062 0.25 -1.671875 0.46875 -1.890625 C 0.5625 -1.992188 0.671875 -2.078125 0.796875 -2.140625 C 0.921875 -2.210938 1.050781 -2.269531 1.1875 -2.3125 C 1.382812 -2.351562 1.640625 -2.394531 1.953125 -2.4375 C 2.273438 -2.488281 2.648438 -2.535156 3.078125 -2.578125 L 3.078125 -3.109375 C 3.078125 -3.390625 3.015625 -3.585938 2.890625 -3.703125 C 2.765625 -3.828125 2.550781 -3.890625 2.25 -3.890625 C 1.789062 -3.890625 1.285156 -3.753906 0.734375 -3.484375 L 0.515625 -3.359375 L 0.421875 -3.609375 L 0.265625 -4.046875 L 0.1875 -4.25 Z M 1.171875 -1.0625 C 1.171875 -0.90625 1.21875 -0.789062 1.3125 -0.71875 C 1.40625 -0.65625 1.585938 -0.625 1.859375 -0.625 C 2.265625 -0.625 2.671875 -0.703125 3.078125 -0.859375 L 3.078125 -1.765625 C 2.273438 -1.640625 1.78125 -1.546875 1.59375 -1.484375 C 1.4375 -1.441406 1.328125 -1.382812 1.265625 -1.3125 C 1.203125 -1.25 1.171875 -1.164062 1.171875 -1.0625 Z M 1.171875 -1.0625 "/></g></g></g><g fill="#d7263d" fill-opacity="1"><g transform="translate(277.085046, 225.392092)"><g><path d="M 0.359375 -4.859375 L 1.03125 -4.90625 L 1.21875 -4.921875 L 1.265625 -4.75 L 2.453125 -1.09375 L 4 -4.71875 L 4.046875 -4.859375 L 5.203125 -4.859375 L 5.0625 -4.546875 L 1.984375 2.40625 L 1.921875 2.546875 L 0.859375 2.546875 L 1 2.21875 L 1.875 0.234375 L 1.859375 0.234375 L 1.796875 0.078125 L 0.140625 -4.5625 L 0.046875 -4.84375 Z M 0.359375 -4.859375 "/></g></g></g><g fill="#d7263d" fill-opacity="1"><g transform="translate(181.590785, 172.411538)"><g><path d="M 11.625 -26.828125 C 13.050781 -26.828125 14.445312 -26.617188 15.8125 -26.203125 C 17.175781 -25.785156 18.1875 -25.375 18.84375 -24.96875 L 19.796875 -24.34375 L 17.375 -19.546875 C 17.1875 -19.671875 16.921875 -19.832031 16.578125 -20.03125 C 16.234375 -20.238281 15.59375 -20.507812 14.65625 -20.84375 C 13.71875 -21.1875 12.847656 -21.359375 12.046875 -21.359375 C 11.046875 -21.359375 10.269531 -21.144531 9.71875 -20.71875 C 9.175781 -20.300781 8.90625 -19.726562 8.90625 -19 C 8.90625 -18.632812 9.03125 -18.296875 9.28125 -17.984375 C 9.539062 -17.679688 9.976562 -17.351562 10.59375 -17 C 11.21875 -16.65625 11.765625 -16.375 12.234375 -16.15625 C 12.703125 -15.945312 13.425781 -15.628906 14.40625 -15.203125 C 16.101562 -14.472656 17.550781 -13.484375 18.75 -12.234375 C 19.957031 -10.992188 20.5625 -9.585938 20.5625 -8.015625 C 20.5625 -6.503906 20.289062 -5.179688 19.75 -4.046875 C 19.207031 -2.921875 18.460938 -2.039062 17.515625 -1.40625 C 16.566406 -0.769531 15.515625 -0.296875 14.359375 0.015625 C 13.210938 0.328125 11.972656 0.484375 10.640625 0.484375 C 9.484375 0.484375 8.351562 0.363281 7.25 0.125 C 6.144531 -0.101562 5.21875 -0.394531 4.46875 -0.75 C 3.726562 -1.101562 3.054688 -1.445312 2.453125 -1.78125 C 1.859375 -2.125 1.425781 -2.414062 1.15625 -2.65625 L 0.734375 -3 L 3.734375 -8.046875 C 3.992188 -7.835938 4.347656 -7.566406 4.796875 -7.234375 C 5.242188 -6.898438 6.035156 -6.457031 7.171875 -5.90625 C 8.304688 -5.351562 9.3125 -5.078125 10.1875 -5.078125 C 12.71875 -5.078125 13.984375 -5.941406 13.984375 -7.671875 C 13.984375 -8.023438 13.894531 -8.359375 13.71875 -8.671875 C 13.539062 -8.984375 13.222656 -9.289062 12.765625 -9.59375 C 12.304688 -9.90625 11.898438 -10.148438 11.546875 -10.328125 C 11.191406 -10.515625 10.613281 -10.789062 9.8125 -11.15625 C 9.019531 -11.53125 8.429688 -11.816406 8.046875 -12.015625 C 6.453125 -12.796875 5.21875 -13.773438 4.34375 -14.953125 C 3.46875 -16.140625 3.03125 -17.414062 3.03125 -18.78125 C 3.03125 -21.144531 3.898438 -23.078125 5.640625 -24.578125 C 7.390625 -26.078125 9.382812 -26.828125 11.625 -26.828125 Z M 11.625 -26.828125 "/></g></g></g><g fill="#d7263d" fill-opacity="1"><g transform="translate(203.037751, 172.411538)"><g><path d="M 17.15625 -26.34375 L 17.15625 -21.078125 L 7.921875 -21.078125 L 7.921875 -15.84375 L 16.453125 -15.84375 L 16.453125 -10.578125 L 7.921875 -10.578125 L 7.921875 0 L 1.921875 0 L 1.921875 -26.34375 Z M 17.15625 -26.34375 "/></g></g></g><g fill="#d7263d" fill-opacity="1"><g transform="translate(221.133635, 172.411538)"><g><path d="M 20.890625 0 L 14.046875 0 L 10.4375 -4.625 L 6.828125 0 L 0 0 L 7 -8.5625 L 0.984375 -16.390625 L 7.59375 -16.390625 L 10.4375 -12.578125 L 13.28125 -16.390625 L 19.890625 -16.390625 L 13.890625 -8.5625 Z M 20.890625 0 "/></g></g></g><g fill="#2c2c2c" fill-opacity="1"><g transform="translate(181.590785, 205.699882)"><g><path d="M 1.921875 -26.34375 L 10.09375 -26.34375 C 12.5625 -26.34375 14.53125 -25.816406 16 -24.765625 C 17.46875 -23.710938 18.203125 -22.003906 18.203125 -19.640625 C 18.203125 -17.003906 17.109375 -15.117188 14.921875 -13.984375 C 18.660156 -13.328125 20.53125 -11.113281 20.53125 -7.34375 C 20.53125 -5.132812 19.765625 -3.359375 18.234375 -2.015625 C 16.703125 -0.671875 14.59375 0 11.90625 0 L 1.921875 0 Z M 7.921875 -16.03125 L 8.40625 -16.03125 C 9.738281 -16.03125 10.734375 -16.265625 11.390625 -16.734375 C 12.054688 -17.203125 12.390625 -17.96875 12.390625 -19.03125 C 12.390625 -20.820312 11.0625 -21.71875 8.40625 -21.71875 L 7.921875 -21.71875 Z M 7.921875 -4.625 L 9.8125 -4.625 C 12.75 -4.625 14.21875 -5.601562 14.21875 -7.5625 C 14.21875 -8.738281 13.847656 -9.582031 13.109375 -10.09375 C 12.378906 -10.601562 11.28125 -10.859375 9.8125 -10.859375 L 7.921875 -10.859375 Z M 7.921875 -4.625 "/></g></g></g><g fill="#2c2c2c" fill-opacity="1"><g transform="translate(202.846257, 205.699882)"><g><path d="M 7.25 -16.390625 L 7.25 -8.59375 C 7.25 -6.96875 7.492188 -5.816406 7.984375 -5.140625 C 8.472656 -4.460938 9.300781 -4.125 10.46875 -4.125 C 11.644531 -4.125 12.476562 -4.460938 12.96875 -5.140625 C 13.457031 -5.816406 13.703125 -6.96875 13.703125 -8.59375 L 13.703125 -16.390625 L 19.359375 -16.390625 L 19.359375 -7.21875 C 19.359375 -4.488281 18.648438 -2.519531 17.234375 -1.3125 C 15.816406 -0.113281 13.5625 0.484375 10.46875 0.484375 C 7.382812 0.484375 5.132812 -0.113281 3.71875 -1.3125 C 2.300781 -2.519531 1.59375 -4.488281 1.59375 -7.21875 L 1.59375 -16.390625 Z M 7.25 -16.390625 "/></g></g></g><g fill="#2c2c2c" fill-opacity="1"><g transform="translate(223.782581, 205.699882)"><g><path d="M 1.921875 0 L 1.921875 -16.390625 L 7.5625 -16.390625 L 7.5625 -14.015625 L 7.640625 -14.015625 C 7.679688 -14.097656 7.75 -14.203125 7.84375 -14.328125 C 7.9375 -14.460938 8.140625 -14.6875 8.453125 -15 C 8.773438 -15.320312 9.117188 -15.609375 9.484375 -15.859375 C 9.847656 -16.117188 10.316406 -16.347656 10.890625 -16.546875 C 11.460938 -16.753906 12.046875 -16.859375 12.640625 -16.859375 C 13.265625 -16.859375 13.875 -16.773438 14.46875 -16.609375 C 15.0625 -16.441406 15.5 -16.269531 15.78125 -16.09375 L 16.21875 -15.84375 L 13.859375 -11.046875 C 13.160156 -11.640625 12.179688 -11.9375 10.921875 -11.9375 C 10.242188 -11.9375 9.660156 -11.785156 9.171875 -11.484375 C 8.679688 -11.191406 8.332031 -10.832031 8.125 -10.40625 C 7.925781 -9.976562 7.78125 -9.613281 7.6875 -9.3125 C 7.601562 -9.019531 7.5625 -8.789062 7.5625 -8.625 L 7.5625 0 Z M 1.921875 0 "/></g></g></g><g fill="#2c2c2c" fill-opacity="1"><g transform="translate(239.676323, 205.699882)"><g><path d="M 1.1875 4.03125 L 5.8125 1.75 C 6.664062 3.15625 8.144531 3.859375 10.25 3.859375 C 11.226562 3.859375 12.140625 3.546875 12.984375 2.921875 C 13.828125 2.296875 14.25 1.332031 14.25 0.03125 L 14.25 -1.1875 C 13.25 -0.0703125 11.457031 0.484375 8.875 0.484375 C 6.507812 0.484375 4.5625 -0.347656 3.03125 -2.015625 C 1.5 -3.691406 0.734375 -5.742188 0.734375 -8.171875 C 0.734375 -10.597656 1.5 -12.648438 3.03125 -14.328125 C 4.5625 -16.015625 6.507812 -16.859375 8.875 -16.859375 C 10.988281 -16.859375 12.742188 -16.210938 14.140625 -14.921875 L 14.25 -14.921875 L 14.25 -16.390625 L 19.890625 -16.390625 L 19.890625 0.453125 C 19.890625 3.109375 19.003906 5.160156 17.234375 6.609375 C 15.472656 8.054688 13.144531 8.78125 10.25 8.78125 C 5.5625 8.78125 2.539062 7.195312 1.1875 4.03125 Z M 7.828125 -10.953125 C 7.097656 -10.234375 6.734375 -9.304688 6.734375 -8.171875 C 6.734375 -7.046875 7.082031 -6.125 7.78125 -5.40625 C 8.488281 -4.695312 9.421875 -4.34375 10.578125 -4.34375 C 11.679688 -4.34375 12.585938 -4.703125 13.296875 -5.421875 C 14.015625 -6.148438 14.375 -7.066406 14.375 -8.171875 C 14.375 -9.304688 14.003906 -10.234375 13.265625 -10.953125 C 12.535156 -11.679688 11.640625 -12.046875 10.578125 -12.046875 C 9.484375 -12.046875 8.566406 -11.679688 7.828125 -10.953125 Z M 7.828125 -10.953125 "/></g></g></g><g fill="#2c2c2c" fill-opacity="1"><g transform="translate(261.474357, 205.699882)"><g><path d="M 18.484375 -7.40625 L 6.609375 -7.40625 C 6.609375 -6.257812 6.976562 -5.410156 7.71875 -4.859375 C 8.46875 -4.304688 9.28125 -4.03125 10.15625 -4.03125 C 11.070312 -4.03125 11.796875 -4.148438 12.328125 -4.390625 C 12.859375 -4.640625 13.460938 -5.125 14.140625 -5.84375 L 18.234375 -3.796875 C 16.535156 -0.941406 13.703125 0.484375 9.734375 0.484375 C 7.265625 0.484375 5.144531 -0.359375 3.375 -2.046875 C 1.613281 -3.742188 0.734375 -5.785156 0.734375 -8.171875 C 0.734375 -10.554688 1.613281 -12.597656 3.375 -14.296875 C 5.144531 -16.003906 7.265625 -16.859375 9.734375 -16.859375 C 12.335938 -16.859375 14.453125 -16.109375 16.078125 -14.609375 C 17.710938 -13.109375 18.53125 -10.960938 18.53125 -8.171875 C 18.53125 -7.785156 18.515625 -7.53125 18.484375 -7.40625 Z M 6.765625 -10.546875 L 13 -10.546875 C 12.875 -11.390625 12.535156 -12.039062 11.984375 -12.5 C 11.441406 -12.957031 10.75 -13.1875 9.90625 -13.1875 C 8.96875 -13.1875 8.21875 -12.941406 7.65625 -12.453125 C 7.101562 -11.960938 6.804688 -11.328125 6.765625 -10.546875 Z M 6.765625 -10.546875 "/></g></g></g><g fill="#2c2c2c" fill-opacity="1"><g transform="translate(280.71918, 205.699882)"><g><path d="M 1.921875 0 L 1.921875 -16.390625 L 7.5625 -16.390625 L 7.5625 -14.015625 L 7.640625 -14.015625 C 7.679688 -14.097656 7.75 -14.203125 7.84375 -14.328125 C 7.9375 -14.460938 8.140625 -14.6875 8.453125 -15 C 8.773438 -15.320312 9.117188 -15.609375 9.484375 -15.859375 C 9.847656 -16.117188 10.316406 -16.347656 10.890625 -16.546875 C 11.460938 -16.753906 12.046875 -16.859375 12.640625 -16.859375 C 13.265625 -16.859375 13.875 -16.773438 14.46875 -16.609375 C 15.0625 -16.441406 15.5 -16.269531 15.78125 -16.09375 L 16.21875 -15.84375 L 13.859375 -11.046875 C 13.160156 -11.640625 12.179688 -11.9375 10.921875 -11.9375 C 10.242188 -11.9375 9.660156 -11.785156 9.171875 -11.484375 C 8.679688 -11.191406 8.332031 -10.832031 8.125 -10.40625 C 7.925781 -9.976562 7.78125 -9.613281 7.6875 -9.3125 C 7.601562 -9.019531 7.5625 -8.789062 7.5625 -8.625 L 7.5625 0 Z M 1.921875 0 "/></g></g></g></svg>