<svg xmlns="http://www.w3.org/2000/svg" xmlns:xlink="http://www.w3.org/1999/xlink" width="500" zoomAndPan="magnify" viewBox="0 0 375 374.999991" height="500" preserveAspectRatio="xMidYMid meet" version="1.0"><defs><g/><clipPath id="d1461061eb"><path d="M 73 209 L 164 209 L 164 228.980469 L 73 228.980469 Z M 73 209 " clip-rule="nonzero"/></clipPath></defs><path fill="#d9d9d9" d="M 65.097656 189.214844 C 61.640625 191.773438 61.804688 194.023438 65.613281 195.296875 C 73.308594 197.867188 80.710938 196.398438 87.902344 193.523438 C 97.253906 189.828125 103.921875 192.75 113.40625 193.441406 C 118.167969 193.726562 126.117188 195.285156 130.273438 192.847656 C 134.019531 191.613281 137.550781 191.097656 141.609375 191.25 C 146.464844 191.6875 150.917969 192.824219 155.402344 194.71875 C 159.578125 196.484375 164.738281 190.167969 166.847656 187.410156 C 167.257812 186.875 168.355469 185.714844 168.128906 184.867188 C 168.027344 184.28125 164.285156 182.769531 164.9375 182.539062 C 165.765625 182.246094 168.574219 183.554688 168.917969 184.660156 C 169.347656 186.011719 167.921875 187.6875 167.25 188.640625 C 164.417969 192.628906 159.554688 198.339844 154.097656 196.296875 C 147.421875 193.800781 139.261719 192.503906 132.375 194.925781 C 126.511719 196.984375 120.820312 196.554688 114.628906 196.570312 C 109.800781 196.582031 105.195312 194.972656 100.40625 194.558594 C 93.464844 194.039062 87.953125 197.484375 81.339844 198.421875 C 75.726562 199.082031 69.710938 198.617188 64.40625 196.582031 C 57.476562 194.011719 64.578125 188.4375 65.097656 189.214844 " fill-opacity="1" fill-rule="nonzero"/><path fill="#ffffff" d="M 117.585938 152.542969 C 118.058594 156.128906 116.589844 157.34375 114.832031 157.605469 C 110.726562 158.214844 105.425781 159.441406 99.699219 161.007812 C 89.996094 163.660156 71.613281 169.289062 72.15625 182.429688 C 72.558594 191.578125 89.835938 185.390625 95.101562 184.53125 C 108.21875 182.398438 122.117188 182.414062 135.085938 185.449219 C 144.613281 187.675781 164.859375 193 158.339844 175.886719 C 155.75 169.085938 159.441406 171.671875 161.230469 176.378906 C 163.195312 181.550781 163.335938 187.960938 157.15625 190.183594 C 151.136719 192.351562 143.839844 190.503906 137.851562 189.101562 C 124.253906 186.183594 110.585938 186.632812 96.972656 189.238281 C 88.503906 190.863281 75.542969 197.328125 68.332031 189.292969 C 62.914062 183.277344 66.246094 173.617188 70.453125 167.992188 C 78.464844 157.289062 92.695312 152.140625 105.394531 149.890625 C 110.046875 149.066406 116.765625 146.476562 117.585938 152.542969 " fill-opacity="1" fill-rule="nonzero"/><path fill="#ffffff" d="M 137.164062 162.003906 C 137.164062 164.082031 135.105469 165.761719 132.5625 165.761719 C 130.023438 165.761719 127.960938 164.082031 127.960938 162.003906 C 127.960938 159.929688 130.023438 158.25 132.5625 158.25 C 135.105469 158.25 137.164062 159.929688 137.164062 162.003906 " fill-opacity="1" fill-rule="nonzero"/><path fill="#ffffff" d="M 147.5 163.507812 C 147.5 164.441406 146.574219 165.195312 145.429688 165.195312 C 144.289062 165.195312 143.363281 164.441406 143.363281 163.507812 C 143.363281 162.578125 144.289062 161.820312 145.429688 161.820312 C 146.574219 161.820312 147.5 162.578125 147.5 163.507812 " fill-opacity="1" fill-rule="nonzero"/><path fill="#ffffff" d="M 149.1875 172.648438 C 149.1875 174.722656 147.128906 176.402344 144.585938 176.402344 C 142.046875 176.402344 139.984375 174.722656 139.984375 172.648438 C 139.984375 170.570312 142.046875 168.890625 144.585938 168.890625 C 147.128906 168.890625 149.1875 170.570312 149.1875 172.648438 " fill-opacity="1" fill-rule="nonzero"/><path fill="#ffffff" d="M 134.96875 170.6875 C 134.96875 171.769531 133.890625 172.648438 132.5625 172.648438 C 131.234375 172.648438 130.160156 171.769531 130.160156 170.6875 C 130.160156 169.601562 131.234375 168.722656 132.5625 168.722656 C 133.890625 168.722656 134.96875 169.601562 134.96875 170.6875 " fill-opacity="1" fill-rule="nonzero"/><path fill="#d9d9d9" d="M 91.867188 209.222656 C 87.011719 212.003906 83.582031 203.902344 78.390625 206.203125 C 69.804688 210.015625 59.179688 207.570312 60.429688 200.453125 C 60.832031 201.707031 61.621094 202.929688 62.492188 203.429688 C 64.417969 204.527344 66.710938 204.832031 68.886719 204.941406 C 76.550781 204.765625 84.457031 204.410156 92.074219 205.441406 C 94.332031 205.746094 96.6875 205.664062 99.070312 205.363281 C 96.5 206.613281 94.054688 207.957031 91.867188 209.222656 Z M 172.914062 196.664062 C 171.878906 198.878906 172.789062 201.671875 168.996094 202.550781 C 167.476562 202.996094 166.242188 203.011719 164.6875 203.171875 C 169.09375 200.460938 174.597656 193.832031 169.609375 190.628906 C 169.515625 190.75 169.421875 190.875 169.328125 191 C 173.433594 194.671875 166.027344 201.277344 162.71875 202.382812 C 157.734375 204.054688 151.4375 204.613281 146.273438 203.628906 C 144.253906 203.242188 142.917969 202.488281 141.316406 201.390625 C 137.128906 198.503906 131.035156 198.230469 126.132812 198.128906 C 114.984375 197.902344 104.535156 203.773438 93.433594 203.183594 C 85.292969 202.425781 76.804688 202.441406 68.894531 202.71875 C 65.3125 202.605469 59.738281 201.925781 61.789062 196.882812 C 61.054688 196.90625 60.597656 197.246094 60.359375 197.757812 C 56.617188 203.027344 60.816406 208.445312 65.835938 211.488281 C 71.3125 214.835938 80.1875 215.324219 86.257812 214.058594 C 88.699219 213.527344 93.628906 211.015625 95.742188 210.113281 C 102.34375 207.316406 107.519531 208.871094 114.550781 209.078125 C 125.097656 209.402344 135.144531 213.199219 145.800781 211.53125 C 152.457031 210.492188 159.128906 209.5625 165.804688 208.636719 C 169.371094 208.515625 177.84375 202.058594 172.914062 196.664062 " fill-opacity="1" fill-rule="nonzero"/><g clip-path="url(#d1461061eb)"><path fill="#ffffff" d="M 163.578125 209.988281 C 163.578125 217.210938 143.335938 228.664062 118.363281 228.664062 C 93.390625 228.664062 71.453125 222.652344 73.144531 215.582031 C 73.507812 214.078125 90.292969 220.390625 100.59375 212 C 105.171875 207.664062 134.714844 217.425781 163.578125 209.988281 " fill-opacity="1" fill-rule="nonzero"/></g><g fill="#d9d9d9" fill-opacity="1"><g transform="translate(181.609548, 225.271732)"><g><path d="M 5.640625 -6.46875 L 5.640625 -2.765625 C 5.640625 -1.742188 5.390625 -0.96875 4.890625 -0.4375 C 4.453125 0.03125 3.847656 0.265625 3.078125 0.265625 C 2.316406 0.265625 1.734375 0.0820312 1.328125 -0.28125 C 0.785156 -0.78125 0.515625 -1.609375 0.515625 -2.765625 L 0.515625 -6.6875 L 1.59375 -6.6875 L 1.59375 -2.78125 C 1.59375 -2.351562 1.632812 -1.992188 1.71875 -1.703125 C 1.800781 -1.421875 1.925781 -1.203125 2.09375 -1.046875 C 2.3125 -0.816406 2.65625 -0.703125 3.125 -0.703125 C 3.46875 -0.703125 3.742188 -0.785156 3.953125 -0.953125 C 4.171875 -1.117188 4.335938 -1.390625 4.453125 -1.765625 C 4.546875 -2.035156 4.59375 -2.375 4.59375 -2.78125 L 4.59375 -6.6875 L 5.640625 -6.6875 Z M 5.640625 -6.46875 "/></g></g></g><g fill="#d9d9d9" fill-opacity="1"><g transform="translate(188.142885, 225.271732)"><g><path d="M 1.390625 -4.53125 C 1.753906 -4.738281 2.109375 -4.851562 2.453125 -4.875 L 2.46875 -4.875 C 2.664062 -4.875 2.84375 -4.859375 3 -4.828125 C 3.15625 -4.804688 3.296875 -4.769531 3.421875 -4.71875 C 3.660156 -4.601562 3.859375 -4.445312 4.015625 -4.25 C 4.179688 -4.039062 4.265625 -3.753906 4.265625 -3.390625 L 4.265625 0.234375 L 3.203125 0.234375 L 3.203125 -3.234375 C 3.203125 -3.410156 3.171875 -3.539062 3.109375 -3.625 C 2.953125 -3.789062 2.710938 -3.875 2.390625 -3.875 C 2.128906 -3.863281 1.851562 -3.796875 1.5625 -3.671875 C 1.550781 -3.671875 1.535156 -3.664062 1.515625 -3.65625 C 1.503906 -3.644531 1.488281 -3.632812 1.46875 -3.625 C 1.457031 -3.625 1.441406 -3.617188 1.421875 -3.609375 C 1.410156 -3.597656 1.398438 -3.59375 1.390625 -3.59375 L 1.390625 0.234375 L 0.328125 0.234375 L 0.328125 -4.828125 L 1.140625 -4.890625 L 1.390625 -4.90625 Z M 1.390625 -4.53125 "/></g></g></g><g fill="#d9d9d9" fill-opacity="1"><g transform="translate(193.290089, 225.271732)"><g><path d="M 1.578125 -4.65625 L 1.578125 0.234375 L 0.515625 0.234375 L 0.515625 -4.828125 L 0.734375 -4.84375 L 1.328125 -4.890625 L 1.578125 -4.90625 Z M 0.5625 -5.828125 C 0.46875 -5.953125 0.421875 -6.101562 0.421875 -6.28125 C 0.421875 -6.46875 0.472656 -6.617188 0.578125 -6.734375 C 0.691406 -6.859375 0.847656 -6.921875 1.046875 -6.921875 C 1.128906 -6.921875 1.207031 -6.90625 1.28125 -6.875 C 1.363281 -6.84375 1.4375 -6.796875 1.5 -6.734375 C 1.5625 -6.679688 1.609375 -6.613281 1.640625 -6.53125 C 1.671875 -6.445312 1.6875 -6.359375 1.6875 -6.265625 C 1.6875 -6.054688 1.617188 -5.894531 1.484375 -5.78125 C 1.359375 -5.675781 1.207031 -5.625 1.03125 -5.625 C 0.832031 -5.625 0.675781 -5.691406 0.5625 -5.828125 Z M 0.5625 -5.828125 "/></g></g></g><g fill="#d9d9d9" fill-opacity="1"><g transform="translate(195.766654, 225.271732)"><g><path d="M 3.640625 0.1875 C 3.453125 0.207031 3.28125 0.222656 3.125 0.234375 C 2.976562 0.253906 2.84375 0.265625 2.71875 0.265625 C 1.9375 0.265625 1.34375 0.0625 0.9375 -0.34375 C 0.53125 -0.75 0.328125 -1.34375 0.328125 -2.125 C 0.328125 -2.550781 0.382812 -2.9375 0.5 -3.28125 C 0.625 -3.625 0.804688 -3.921875 1.046875 -4.171875 C 1.535156 -4.648438 2.171875 -4.890625 2.953125 -4.890625 C 3.410156 -4.890625 3.882812 -4.816406 4.375 -4.671875 C 4.382812 -4.660156 4.40625 -4.65625 4.4375 -4.65625 C 4.476562 -4.65625 4.515625 -4.648438 4.546875 -4.640625 C 4.578125 -4.628906 4.609375 -4.601562 4.640625 -4.5625 L 4.703125 -4.484375 L 4.703125 2.484375 L 3.890625 2.546875 L 3.640625 2.5625 Z M 3.640625 -3.765625 C 3.273438 -3.835938 3.03125 -3.878906 2.90625 -3.890625 C 2.445312 -3.890625 2.082031 -3.738281 1.8125 -3.4375 C 1.53125 -3.132812 1.390625 -2.703125 1.390625 -2.140625 C 1.390625 -1.578125 1.53125 -1.191406 1.8125 -0.984375 C 2.03125 -0.816406 2.304688 -0.734375 2.640625 -0.734375 C 2.953125 -0.734375 3.285156 -0.753906 3.640625 -0.796875 Z M 3.640625 -3.765625 "/></g></g></g><g fill="#d9d9d9" fill-opacity="1"><g transform="translate(201.265006, 225.271732)"><g><path d="M 1.8125 -0.796875 C 1.9375 -0.765625 2.125 -0.75 2.375 -0.75 C 2.46875 -0.75 2.578125 -0.765625 2.703125 -0.796875 C 2.828125 -0.828125 2.960938 -0.875 3.109375 -0.9375 C 3.128906 -0.945312 3.148438 -0.957031 3.171875 -0.96875 C 3.191406 -0.976562 3.210938 -0.984375 3.234375 -0.984375 C 3.253906 -0.992188 3.273438 -1.003906 3.296875 -1.015625 L 3.296875 -4.828125 L 3.515625 -4.84375 L 4.109375 -4.890625 L 4.359375 -4.90625 L 4.359375 0.234375 L 3.296875 0.234375 L 3.296875 -0.0625 C 2.910156 0.15625 2.523438 0.265625 2.140625 0.265625 C 1.472656 0.265625 0.984375 0.0546875 0.671875 -0.359375 C 0.503906 -0.566406 0.421875 -0.851562 0.421875 -1.21875 L 0.421875 -4.828125 L 1.234375 -4.890625 L 1.484375 -4.90625 L 1.484375 -1.375 C 1.484375 -1.09375 1.59375 -0.898438 1.8125 -0.796875 Z M 1.8125 -0.796875 "/></g></g></g><g fill="#d9d9d9" fill-opacity="1"><g transform="translate(206.504613, 225.271732)"><g><path d="M 1.34375 -2.125 C 1.34375 -1.632812 1.445312 -1.28125 1.65625 -1.0625 C 1.863281 -0.84375 2.195312 -0.734375 2.65625 -0.734375 C 3.070312 -0.734375 3.445312 -0.785156 3.78125 -0.890625 C 3.820312 -0.910156 3.859375 -0.925781 3.890625 -0.9375 C 3.921875 -0.945312 3.941406 -0.953125 3.953125 -0.953125 L 4.203125 -1.078125 L 4.28125 -0.8125 L 4.40625 -0.328125 L 4.453125 -0.140625 L 4.3125 -0.0625 C 4.0625 0.0820312 3.632812 0.1875 3.03125 0.25 C 2.945312 0.257812 2.863281 0.265625 2.78125 0.265625 C 2.695312 0.265625 2.609375 0.265625 2.515625 0.265625 C 1.941406 0.265625 1.460938 0.117188 1.078125 -0.171875 C 0.546875 -0.554688 0.28125 -1.203125 0.28125 -2.109375 C 0.28125 -2.535156 0.335938 -2.921875 0.453125 -3.265625 C 0.566406 -3.609375 0.742188 -3.90625 0.984375 -4.15625 C 1.453125 -4.644531 2.023438 -4.890625 2.703125 -4.890625 C 3.390625 -4.890625 3.910156 -4.660156 4.265625 -4.203125 C 4.523438 -3.847656 4.65625 -3.382812 4.65625 -2.8125 C 4.65625 -2.6875 4.648438 -2.550781 4.640625 -2.40625 L 4.625 -2.203125 L 1.34375 -2.203125 Z M 2.75 -3.84375 C 2.414062 -3.84375 2.132812 -3.75 1.90625 -3.5625 C 1.757812 -3.425781 1.632812 -3.265625 1.53125 -3.078125 L 3.625 -3.078125 C 3.613281 -3.179688 3.59375 -3.273438 3.5625 -3.359375 C 3.53125 -3.453125 3.488281 -3.523438 3.4375 -3.578125 C 3.382812 -3.640625 3.328125 -3.6875 3.265625 -3.71875 C 3.203125 -3.757812 3.128906 -3.789062 3.046875 -3.8125 L 3.03125 -3.8125 C 2.988281 -3.820312 2.941406 -3.828125 2.890625 -3.828125 C 2.835938 -3.835938 2.789062 -3.84375 2.75 -3.84375 Z M 2.75 -3.84375 "/></g></g></g><g fill="#d9d9d9" fill-opacity="1"><g transform="translate(211.734985, 225.271732)"><g/></g></g><g fill="#d9d9d9" fill-opacity="1"><g transform="translate(214.960071, 225.271732)"><g><path d="M 2.015625 0 L 2.015625 -5.671875 L 0.171875 -5.671875 L 0.1875 -5.921875 L 0.234375 -6.484375 L 0.25 -6.6875 L 4.890625 -6.6875 L 4.875 -6.453125 L 4.828125 -5.890625 L 4.8125 -5.671875 L 3.0625 -5.671875 L 3.0625 0.234375 L 2.015625 0.234375 Z M 2.015625 0 "/></g></g></g><g fill="#d9d9d9" fill-opacity="1"><g transform="translate(220.486152, 225.271732)"><g><path d="M 0.375 -4.328125 C 1.070312 -4.671875 1.691406 -4.851562 2.234375 -4.875 C 2.671875 -4.875 3.015625 -4.816406 3.265625 -4.703125 C 3.347656 -4.660156 3.425781 -4.613281 3.5 -4.5625 C 3.570312 -4.519531 3.640625 -4.46875 3.703125 -4.40625 C 3.765625 -4.34375 3.820312 -4.273438 3.875 -4.203125 C 4.039062 -3.984375 4.125 -3.6875 4.125 -3.3125 L 4.125 0.234375 L 3.0625 0.234375 L 3.0625 -0.03125 C 2.363281 0.164062 1.898438 0.265625 1.671875 0.265625 L 1.640625 0.265625 C 1.003906 0.265625 0.5625 0.0625 0.3125 -0.34375 C 0.21875 -0.5 0.164062 -0.65625 0.15625 -0.8125 C 0.144531 -0.9375 0.140625 -1.039062 0.140625 -1.125 C 0.140625 -1.40625 0.25 -1.660156 0.46875 -1.890625 C 0.5625 -1.992188 0.671875 -2.078125 0.796875 -2.140625 C 0.921875 -2.210938 1.050781 -2.265625 1.1875 -2.296875 C 1.382812 -2.347656 1.640625 -2.394531 1.953125 -2.4375 C 2.265625 -2.488281 2.632812 -2.53125 3.0625 -2.5625 L 3.0625 -3.109375 C 3.0625 -3.378906 3 -3.570312 2.875 -3.6875 C 2.757812 -3.8125 2.550781 -3.875 2.25 -3.875 C 1.789062 -3.875 1.285156 -3.738281 0.734375 -3.46875 L 0.515625 -3.359375 L 0.421875 -3.59375 L 0.265625 -4.03125 L 0.1875 -4.234375 Z M 1.15625 -1.046875 C 1.15625 -0.898438 1.203125 -0.789062 1.296875 -0.71875 C 1.398438 -0.65625 1.582031 -0.625 1.84375 -0.625 C 2.25 -0.625 2.65625 -0.703125 3.0625 -0.859375 L 3.0625 -1.75 C 2.269531 -1.632812 1.78125 -1.546875 1.59375 -1.484375 C 1.425781 -1.429688 1.3125 -1.367188 1.25 -1.296875 C 1.1875 -1.234375 1.15625 -1.148438 1.15625 -1.046875 Z M 1.15625 -1.046875 "/></g></g></g><g fill="#d9d9d9" fill-opacity="1"><g transform="translate(225.217509, 225.271732)"><g><path d="M 3.109375 -3.78125 C 2.910156 -3.851562 2.628906 -3.890625 2.265625 -3.890625 C 1.929688 -3.890625 1.679688 -3.832031 1.515625 -3.71875 C 1.367188 -3.625 1.296875 -3.523438 1.296875 -3.421875 C 1.296875 -3.296875 1.328125 -3.207031 1.390625 -3.15625 C 1.492188 -3.070312 1.628906 -3.003906 1.796875 -2.953125 C 1.972656 -2.890625 2.164062 -2.828125 2.375 -2.765625 C 2.5 -2.734375 2.613281 -2.695312 2.71875 -2.65625 C 2.832031 -2.613281 2.9375 -2.566406 3.03125 -2.515625 C 3.28125 -2.390625 3.46875 -2.222656 3.59375 -2.015625 C 3.726562 -1.804688 3.796875 -1.578125 3.796875 -1.328125 C 3.796875 -0.804688 3.617188 -0.40625 3.265625 -0.125 C 3.191406 -0.0703125 3.113281 -0.0234375 3.03125 0.015625 C 2.957031 0.0546875 2.875 0.09375 2.78125 0.125 C 2.6875 0.15625 2.585938 0.179688 2.484375 0.203125 C 2.390625 0.222656 2.285156 0.238281 2.171875 0.25 C 2.054688 0.257812 1.9375 0.265625 1.8125 0.265625 C 1.507812 0.265625 1.21875 0.234375 0.9375 0.171875 C 0.632812 0.109375 0.398438 0.015625 0.234375 -0.109375 L 0.078125 -0.21875 L 0.15625 -0.390625 L 0.359375 -0.875 L 0.484375 -1.171875 L 0.71875 -0.953125 C 0.832031 -0.867188 1.078125 -0.800781 1.453125 -0.75 C 1.585938 -0.726562 1.71875 -0.71875 1.84375 -0.71875 C 2.125 -0.71875 2.351562 -0.773438 2.53125 -0.890625 C 2.582031 -0.921875 2.625 -0.953125 2.65625 -0.984375 C 2.6875 -1.023438 2.707031 -1.066406 2.71875 -1.109375 C 2.738281 -1.160156 2.75 -1.222656 2.75 -1.296875 C 2.75 -1.398438 2.710938 -1.484375 2.640625 -1.546875 C 2.535156 -1.640625 2.40625 -1.710938 2.25 -1.765625 C 2.15625 -1.804688 2.054688 -1.835938 1.953125 -1.859375 C 1.859375 -1.890625 1.757812 -1.921875 1.65625 -1.953125 C 1.425781 -2.015625 1.210938 -2.09375 1.015625 -2.1875 C 0.796875 -2.289062 0.617188 -2.425781 0.484375 -2.59375 C 0.421875 -2.664062 0.367188 -2.738281 0.328125 -2.8125 C 0.296875 -2.882812 0.269531 -2.960938 0.25 -3.046875 C 0.238281 -3.140625 0.234375 -3.234375 0.234375 -3.328125 C 0.234375 -3.804688 0.421875 -4.191406 0.796875 -4.484375 C 1.140625 -4.753906 1.597656 -4.890625 2.171875 -4.890625 C 2.304688 -4.890625 2.445312 -4.878906 2.59375 -4.859375 C 2.726562 -4.847656 2.851562 -4.835938 2.96875 -4.828125 L 3.359375 -4.75 L 3.625 -4.703125 L 3.546875 -4.453125 L 3.390625 -3.9375 L 3.328125 -3.71875 Z M 3.109375 -3.78125 "/></g></g></g><g fill="#d9d9d9" fill-opacity="1"><g transform="translate(229.625436, 225.271732)"><g><path d="M 2.828125 0 C 2.671875 0.15625 2.414062 0.234375 2.0625 0.234375 C 1.59375 0.234375 1.265625 0.0976562 1.078125 -0.171875 C 0.796875 -0.441406 0.65625 -0.796875 0.65625 -1.234375 L 0.65625 -3.84375 L 0.109375 -3.84375 L 0.140625 -4.125 L 0.21875 -4.65625 L 0.265625 -4.84375 L 0.65625 -4.84375 L 0.65625 -5.75 L 0.875 -5.765625 L 1.46875 -5.8125 L 1.71875 -5.84375 L 1.71875 -4.84375 L 2.78125 -4.84375 L 2.78125 -3.84375 L 1.71875 -3.84375 L 1.71875 -1.09375 C 1.71875 -0.96875 1.738281 -0.882812 1.78125 -0.84375 C 1.820312 -0.800781 1.90625 -0.78125 2.03125 -0.78125 C 2.164062 -0.78125 2.3125 -0.8125 2.46875 -0.875 L 2.71875 -0.984375 L 2.78125 -0.71875 L 2.890625 -0.21875 L 2.921875 -0.09375 Z M 2.828125 0 "/></g></g></g><g fill="#d9d9d9" fill-opacity="1"><g transform="translate(233.155468, 225.271732)"><g><path d="M 1.34375 -2.125 C 1.34375 -1.632812 1.445312 -1.28125 1.65625 -1.0625 C 1.863281 -0.84375 2.195312 -0.734375 2.65625 -0.734375 C 3.070312 -0.734375 3.445312 -0.785156 3.78125 -0.890625 C 3.820312 -0.910156 3.859375 -0.925781 3.890625 -0.9375 C 3.921875 -0.945312 3.941406 -0.953125 3.953125 -0.953125 L 4.203125 -1.078125 L 4.28125 -0.8125 L 4.40625 -0.328125 L 4.453125 -0.140625 L 4.3125 -0.0625 C 4.0625 0.0820312 3.632812 0.1875 3.03125 0.25 C 2.945312 0.257812 2.863281 0.265625 2.78125 0.265625 C 2.695312 0.265625 2.609375 0.265625 2.515625 0.265625 C 1.941406 0.265625 1.460938 0.117188 1.078125 -0.171875 C 0.546875 -0.554688 0.28125 -1.203125 0.28125 -2.109375 C 0.28125 -2.535156 0.335938 -2.921875 0.453125 -3.265625 C 0.566406 -3.609375 0.742188 -3.90625 0.984375 -4.15625 C 1.453125 -4.644531 2.023438 -4.890625 2.703125 -4.890625 C 3.390625 -4.890625 3.910156 -4.660156 4.265625 -4.203125 C 4.523438 -3.847656 4.65625 -3.382812 4.65625 -2.8125 C 4.65625 -2.6875 4.648438 -2.550781 4.640625 -2.40625 L 4.625 -2.203125 L 1.34375 -2.203125 Z M 2.75 -3.84375 C 2.414062 -3.84375 2.132812 -3.75 1.90625 -3.5625 C 1.757812 -3.425781 1.632812 -3.265625 1.53125 -3.078125 L 3.625 -3.078125 C 3.613281 -3.179688 3.59375 -3.273438 3.5625 -3.359375 C 3.53125 -3.453125 3.488281 -3.523438 3.4375 -3.578125 C 3.382812 -3.640625 3.328125 -3.6875 3.265625 -3.71875 C 3.203125 -3.757812 3.128906 -3.789062 3.046875 -3.8125 L 3.03125 -3.8125 C 2.988281 -3.820312 2.941406 -3.828125 2.890625 -3.828125 C 2.835938 -3.835938 2.789062 -3.84375 2.75 -3.84375 Z M 2.75 -3.84375 "/></g></g></g><g fill="#d9d9d9" fill-opacity="1"><g transform="translate(238.385839, 225.271732)"><g/></g></g><g fill="#d9d9d9" fill-opacity="1"><g transform="translate(241.610926, 225.271732)"><g><path d="M 4.046875 -5.671875 L 1.59375 -5.671875 L 1.59375 -3.71875 L 4.109375 -3.71875 L 4.09375 -3.46875 L 4.046875 -2.90625 L 4.03125 -2.703125 L 1.59375 -2.703125 L 1.59375 -0.78125 L 4.53125 -0.78125 L 4.515625 -0.53125 L 4.46875 0.015625 L 4.453125 0.234375 L 0.515625 0.234375 L 0.515625 -6.6875 L 4.34375 -6.6875 L 4.328125 -6.453125 L 4.28125 -5.890625 L 4.265625 -5.671875 Z M 4.046875 -5.671875 "/></g></g></g><g fill="#d9d9d9" fill-opacity="1"><g transform="translate(246.730409, 225.271732)"><g><path d="M 0.34375 -4.84375 L 1.03125 -4.890625 L 1.203125 -4.90625 L 1.265625 -4.734375 L 2.390625 -1.40625 L 3.625 -4.703125 L 3.671875 -4.84375 L 3.8125 -4.84375 L 4.484375 -4.890625 L 4.84375 -4.921875 L 4.703125 -4.578125 L 2.84375 0.078125 L 2.78125 0.234375 L 1.921875 0.234375 L 1.859375 0.078125 L 0.15625 -4.53125 L 0.046875 -4.828125 Z M 0.34375 -4.84375 "/></g></g></g><g fill="#d9d9d9" fill-opacity="1"><g transform="translate(252.071668, 225.271732)"><g><path d="M 1.34375 -2.125 C 1.34375 -1.632812 1.445312 -1.28125 1.65625 -1.0625 C 1.863281 -0.84375 2.195312 -0.734375 2.65625 -0.734375 C 3.070312 -0.734375 3.445312 -0.785156 3.78125 -0.890625 C 3.820312 -0.910156 3.859375 -0.925781 3.890625 -0.9375 C 3.921875 -0.945312 3.941406 -0.953125 3.953125 -0.953125 L 4.203125 -1.078125 L 4.28125 -0.8125 L 4.40625 -0.328125 L 4.453125 -0.140625 L 4.3125 -0.0625 C 4.0625 0.0820312 3.632812 0.1875 3.03125 0.25 C 2.945312 0.257812 2.863281 0.265625 2.78125 0.265625 C 2.695312 0.265625 2.609375 0.265625 2.515625 0.265625 C 1.941406 0.265625 1.460938 0.117188 1.078125 -0.171875 C 0.546875 -0.554688 0.28125 -1.203125 0.28125 -2.109375 C 0.28125 -2.535156 0.335938 -2.921875 0.453125 -3.265625 C 0.566406 -3.609375 0.742188 -3.90625 0.984375 -4.15625 C 1.453125 -4.644531 2.023438 -4.890625 2.703125 -4.890625 C 3.390625 -4.890625 3.910156 -4.660156 4.265625 -4.203125 C 4.523438 -3.847656 4.65625 -3.382812 4.65625 -2.8125 C 4.65625 -2.6875 4.648438 -2.550781 4.640625 -2.40625 L 4.625 -2.203125 L 1.34375 -2.203125 Z M 2.75 -3.84375 C 2.414062 -3.84375 2.132812 -3.75 1.90625 -3.5625 C 1.757812 -3.425781 1.632812 -3.265625 1.53125 -3.078125 L 3.625 -3.078125 C 3.613281 -3.179688 3.59375 -3.273438 3.5625 -3.359375 C 3.53125 -3.453125 3.488281 -3.523438 3.4375 -3.578125 C 3.382812 -3.640625 3.328125 -3.6875 3.265625 -3.71875 C 3.203125 -3.757812 3.128906 -3.789062 3.046875 -3.8125 L 3.03125 -3.8125 C 2.988281 -3.820312 2.941406 -3.828125 2.890625 -3.828125 C 2.835938 -3.835938 2.789062 -3.84375 2.75 -3.84375 Z M 2.75 -3.84375 "/></g></g></g><g fill="#d9d9d9" fill-opacity="1"><g transform="translate(257.30204, 225.271732)"><g><path d="M 2.859375 -3.765625 C 2.785156 -3.804688 2.71875 -3.828125 2.65625 -3.828125 C 2.601562 -3.828125 2.5625 -3.828125 2.53125 -3.828125 L 2.515625 -3.8125 L 2.46875 -3.8125 C 2.425781 -3.8125 2.378906 -3.804688 2.328125 -3.796875 C 2.285156 -3.785156 2.238281 -3.769531 2.1875 -3.75 C 2.144531 -3.738281 2.097656 -3.71875 2.046875 -3.6875 C 1.992188 -3.664062 1.941406 -3.632812 1.890625 -3.59375 C 1.867188 -3.582031 1.84375 -3.566406 1.8125 -3.546875 C 1.789062 -3.523438 1.769531 -3.503906 1.75 -3.484375 C 1.613281 -3.378906 1.492188 -3.265625 1.390625 -3.140625 L 1.390625 0.234375 L 0.328125 0.234375 L 0.328125 -4.828125 L 1.140625 -4.890625 L 1.390625 -4.90625 L 1.390625 -4.234375 C 1.460938 -4.304688 1.53125 -4.367188 1.59375 -4.421875 C 1.925781 -4.671875 2.25 -4.804688 2.5625 -4.828125 C 2.613281 -4.828125 2.6875 -4.828125 2.78125 -4.828125 C 2.90625 -4.828125 3.066406 -4.800781 3.265625 -4.75 L 3.515625 -4.671875 L 3.421875 -4.4375 L 3.171875 -3.875 L 3.078125 -3.640625 Z M 2.859375 -3.765625 "/></g></g></g><g fill="#d9d9d9" fill-opacity="1"><g transform="translate(260.970691, 225.271732)"><g><path d="M 0.34375 -4.84375 L 1.03125 -4.890625 L 1.203125 -4.90625 L 1.265625 -4.734375 L 2.453125 -1.09375 L 3.984375 -4.703125 L 4.03125 -4.84375 L 5.1875 -4.84375 L 5.046875 -4.53125 L 1.984375 2.40625 L 1.921875 2.546875 L 0.859375 2.546875 L 1 2.21875 L 1.875 0.234375 L 1.84375 0.234375 L 1.796875 0.078125 L 0.140625 -4.546875 L 0.046875 -4.828125 Z M 0.34375 -4.84375 "/></g></g></g><g fill="#d9d9d9" fill-opacity="1"><g transform="translate(266.663111, 225.271732)"><g><path d="M 2.9375 -4.890625 C 3.21875 -4.890625 3.484375 -4.835938 3.734375 -4.734375 L 3.734375 -7.09375 L 3.953125 -7.109375 L 4.546875 -7.15625 L 4.796875 -7.171875 L 4.796875 0.015625 L 4.578125 0.015625 C 4.515625 0.015625 4.429688 0.0234375 4.328125 0.046875 C 4.222656 0.078125 4.101562 0.109375 3.96875 0.140625 C 3.832031 0.171875 3.707031 0.191406 3.59375 0.203125 C 3.363281 0.222656 3.171875 0.238281 3.015625 0.25 C 2.859375 0.257812 2.734375 0.265625 2.640625 0.265625 C 2.078125 0.265625 1.601562 0.117188 1.21875 -0.171875 C 0.6875 -0.578125 0.421875 -1.222656 0.421875 -2.109375 C 0.421875 -2.398438 0.445312 -2.664062 0.5 -2.90625 C 0.550781 -3.15625 0.628906 -3.382812 0.734375 -3.59375 C 0.835938 -3.8125 0.972656 -4.003906 1.140625 -4.171875 C 1.628906 -4.648438 2.226562 -4.890625 2.9375 -4.890625 Z M 3.734375 -3.78125 C 3.617188 -3.8125 3.503906 -3.835938 3.390625 -3.859375 C 3.285156 -3.878906 3.175781 -3.890625 3.0625 -3.890625 C 2.5625 -3.890625 2.175781 -3.738281 1.90625 -3.4375 C 1.625 -3.132812 1.484375 -2.703125 1.484375 -2.140625 C 1.484375 -1.578125 1.625 -1.191406 1.90625 -0.984375 C 2.125 -0.816406 2.398438 -0.734375 2.734375 -0.734375 C 3.046875 -0.734375 3.378906 -0.753906 3.734375 -0.796875 Z M 3.734375 -3.78125 "/></g></g></g><g fill="#d9d9d9" fill-opacity="1"><g transform="translate(272.069057, 225.271732)"><g><path d="M 0.375 -4.328125 C 1.070312 -4.671875 1.691406 -4.851562 2.234375 -4.875 C 2.671875 -4.875 3.015625 -4.816406 3.265625 -4.703125 C 3.347656 -4.660156 3.425781 -4.613281 3.5 -4.5625 C 3.570312 -4.519531 3.640625 -4.46875 3.703125 -4.40625 C 3.765625 -4.34375 3.820312 -4.273438 3.875 -4.203125 C 4.039062 -3.984375 4.125 -3.6875 4.125 -3.3125 L 4.125 0.234375 L 3.0625 0.234375 L 3.0625 -0.03125 C 2.363281 0.164062 1.898438 0.265625 1.671875 0.265625 L 1.640625 0.265625 C 1.003906 0.265625 0.5625 0.0625 0.3125 -0.34375 C 0.21875 -0.5 0.164062 -0.65625 0.15625 -0.8125 C 0.144531 -0.9375 0.140625 -1.039062 0.140625 -1.125 C 0.140625 -1.40625 0.25 -1.660156 0.46875 -1.890625 C 0.5625 -1.992188 0.671875 -2.078125 0.796875 -2.140625 C 0.921875 -2.210938 1.050781 -2.265625 1.1875 -2.296875 C 1.382812 -2.347656 1.640625 -2.394531 1.953125 -2.4375 C 2.265625 -2.488281 2.632812 -2.53125 3.0625 -2.5625 L 3.0625 -3.109375 C 3.0625 -3.378906 3 -3.570312 2.875 -3.6875 C 2.757812 -3.8125 2.550781 -3.875 2.25 -3.875 C 1.789062 -3.875 1.285156 -3.738281 0.734375 -3.46875 L 0.515625 -3.359375 L 0.421875 -3.59375 L 0.265625 -4.03125 L 0.1875 -4.234375 Z M 1.15625 -1.046875 C 1.15625 -0.898438 1.203125 -0.789062 1.296875 -0.71875 C 1.398438 -0.65625 1.582031 -0.625 1.84375 -0.625 C 2.25 -0.625 2.65625 -0.703125 3.0625 -0.859375 L 3.0625 -1.75 C 2.269531 -1.632812 1.78125 -1.546875 1.59375 -1.484375 C 1.425781 -1.429688 1.3125 -1.367188 1.25 -1.296875 C 1.1875 -1.234375 1.15625 -1.148438 1.15625 -1.046875 Z M 1.15625 -1.046875 "/></g></g></g><g fill="#d9d9d9" fill-opacity="1"><g transform="translate(276.800413, 225.271732)"><g><path d="M 0.34375 -4.84375 L 1.03125 -4.890625 L 1.203125 -4.90625 L 1.265625 -4.734375 L 2.453125 -1.09375 L 3.984375 -4.703125 L 4.03125 -4.84375 L 5.1875 -4.84375 L 5.046875 -4.53125 L 1.984375 2.40625 L 1.921875 2.546875 L 0.859375 2.546875 L 1 2.21875 L 1.875 0.234375 L 1.84375 0.234375 L 1.796875 0.078125 L 0.140625 -4.546875 L 0.046875 -4.828125 Z M 0.34375 -4.84375 "/></g></g></g><g fill="#d9d9d9" fill-opacity="1"><g transform="translate(181.609548, 172.459476)"><g><path d="M 11.578125 -26.734375 C 13.003906 -26.734375 14.394531 -26.523438 15.75 -26.109375 C 17.113281 -25.703125 18.125 -25.296875 18.78125 -24.890625 L 19.734375 -24.25 L 17.3125 -19.484375 C 17.125 -19.609375 16.859375 -19.769531 16.515625 -19.96875 C 16.179688 -20.175781 15.546875 -20.445312 14.609375 -20.78125 C 13.671875 -21.125 12.800781 -21.296875 12 -21.296875 C 11 -21.296875 10.226562 -21.082031 9.6875 -20.65625 C 9.144531 -20.226562 8.875 -19.65625 8.875 -18.9375 C 8.875 -18.570312 9 -18.234375 9.25 -17.921875 C 9.507812 -17.617188 9.945312 -17.289062 10.5625 -16.9375 C 11.175781 -16.59375 11.71875 -16.3125 12.1875 -16.09375 C 12.65625 -15.882812 13.378906 -15.570312 14.359375 -15.15625 C 16.054688 -14.425781 17.503906 -13.441406 18.703125 -12.203125 C 19.898438 -10.960938 20.5 -9.554688 20.5 -7.984375 C 20.5 -6.484375 20.226562 -5.171875 19.6875 -4.046875 C 19.144531 -2.921875 18.398438 -2.039062 17.453125 -1.40625 C 16.515625 -0.769531 15.472656 -0.296875 14.328125 0.015625 C 13.179688 0.328125 11.9375 0.484375 10.59375 0.484375 C 9.445312 0.484375 8.320312 0.363281 7.21875 0.125 C 6.113281 -0.101562 5.191406 -0.390625 4.453125 -0.734375 C 3.710938 -1.085938 3.046875 -1.4375 2.453125 -1.78125 C 1.859375 -2.125 1.421875 -2.410156 1.140625 -2.640625 L 0.734375 -2.984375 L 3.71875 -8.015625 C 3.976562 -7.804688 4.328125 -7.535156 4.765625 -7.203125 C 5.210938 -6.878906 6.003906 -6.441406 7.140625 -5.890625 C 8.273438 -5.335938 9.28125 -5.0625 10.15625 -5.0625 C 12.675781 -5.0625 13.9375 -5.921875 13.9375 -7.640625 C 13.9375 -8.003906 13.847656 -8.335938 13.671875 -8.640625 C 13.492188 -8.953125 13.175781 -9.257812 12.71875 -9.5625 C 12.257812 -9.875 11.851562 -10.117188 11.5 -10.296875 C 11.15625 -10.472656 10.582031 -10.75 9.78125 -11.125 C 8.988281 -11.5 8.398438 -11.78125 8.015625 -11.96875 C 6.429688 -12.75 5.203125 -13.726562 4.328125 -14.90625 C 3.460938 -16.082031 3.03125 -17.351562 3.03125 -18.71875 C 3.03125 -21.070312 3.898438 -22.992188 5.640625 -24.484375 C 7.378906 -25.984375 9.359375 -26.734375 11.578125 -26.734375 Z M 11.578125 -26.734375 "/></g></g></g><g fill="#d9d9d9" fill-opacity="1"><g transform="translate(202.988373, 172.459476)"><g><path d="M 17.09375 -26.265625 L 17.09375 -21 L 7.890625 -21 L 7.890625 -15.78125 L 16.390625 -15.78125 L 16.390625 -10.53125 L 7.890625 -10.53125 L 7.890625 0 L 1.90625 0 L 1.90625 -26.265625 Z M 17.09375 -26.265625 "/></g></g></g><g fill="#d9d9d9" fill-opacity="1"><g transform="translate(221.026762, 172.459476)"><g><path d="M 20.8125 0 L 14 0 L 10.40625 -4.609375 L 6.8125 0 L 0 0 L 6.96875 -8.53125 L 0.984375 -16.328125 L 7.578125 -16.328125 L 10.40625 -12.546875 L 13.234375 -16.328125 L 19.828125 -16.328125 L 13.84375 -8.53125 Z M 20.8125 0 "/></g></g></g><g fill="#d9d9d9" fill-opacity="1"><g transform="translate(181.609548, 205.642055)"><g><path d="M 1.90625 -26.265625 L 10.0625 -26.265625 C 12.519531 -26.265625 14.476562 -25.738281 15.9375 -24.6875 C 17.40625 -23.632812 18.140625 -21.929688 18.140625 -19.578125 C 18.140625 -16.941406 17.046875 -15.0625 14.859375 -13.9375 C 18.597656 -13.28125 20.46875 -11.078125 20.46875 -7.328125 C 20.46875 -5.117188 19.703125 -3.34375 18.171875 -2 C 16.640625 -0.664062 14.539062 0 11.875 0 L 1.90625 0 Z M 7.890625 -15.984375 L 8.375 -15.984375 C 9.707031 -15.984375 10.703125 -16.210938 11.359375 -16.671875 C 12.015625 -17.140625 12.34375 -17.90625 12.34375 -18.96875 C 12.34375 -20.75 11.019531 -21.640625 8.375 -21.640625 L 7.890625 -21.640625 Z M 7.890625 -4.609375 L 9.765625 -4.609375 C 12.691406 -4.609375 14.15625 -5.585938 14.15625 -7.546875 C 14.15625 -8.710938 13.789062 -9.550781 13.0625 -10.0625 C 12.332031 -10.570312 11.234375 -10.828125 9.765625 -10.828125 L 7.890625 -10.828125 Z M 7.890625 -4.609375 "/></g></g></g><g fill="#d9d9d9" fill-opacity="1"><g transform="translate(202.797488, 205.642055)"><g><path d="M 7.21875 -16.328125 L 7.21875 -8.5625 C 7.21875 -6.945312 7.460938 -5.800781 7.953125 -5.125 C 8.441406 -4.445312 9.269531 -4.109375 10.4375 -4.109375 C 11.601562 -4.109375 12.429688 -4.445312 12.921875 -5.125 C 13.410156 -5.800781 13.65625 -6.945312 13.65625 -8.5625 L 13.65625 -16.328125 L 19.28125 -16.328125 L 19.28125 -7.1875 C 19.28125 -4.476562 18.578125 -2.519531 17.171875 -1.3125 C 15.765625 -0.113281 13.519531 0.484375 10.4375 0.484375 C 7.363281 0.484375 5.117188 -0.113281 3.703125 -1.3125 C 2.296875 -2.519531 1.59375 -4.476562 1.59375 -7.1875 L 1.59375 -16.328125 Z M 7.21875 -16.328125 "/></g></g></g><g fill="#d9d9d9" fill-opacity="1"><g transform="translate(223.667293, 205.642055)"><g><path d="M 1.90625 0 L 1.90625 -16.328125 L 7.546875 -16.328125 L 7.546875 -13.96875 L 7.609375 -13.96875 C 7.648438 -14.050781 7.71875 -14.15625 7.8125 -14.28125 C 7.90625 -14.414062 8.109375 -14.640625 8.421875 -14.953125 C 8.742188 -15.273438 9.085938 -15.5625 9.453125 -15.8125 C 9.816406 -16.070312 10.285156 -16.300781 10.859375 -16.5 C 11.429688 -16.707031 12.015625 -16.8125 12.609375 -16.8125 C 13.222656 -16.8125 13.828125 -16.722656 14.421875 -16.546875 C 15.015625 -16.378906 15.445312 -16.210938 15.71875 -16.046875 L 16.171875 -15.78125 L 13.8125 -11.015625 C 13.113281 -11.609375 12.140625 -11.90625 10.890625 -11.90625 C 10.203125 -11.90625 9.613281 -11.753906 9.125 -11.453125 C 8.644531 -11.160156 8.300781 -10.800781 8.09375 -10.375 C 7.894531 -9.945312 7.753906 -9.582031 7.671875 -9.28125 C 7.585938 -8.988281 7.546875 -8.757812 7.546875 -8.59375 L 7.546875 0 Z M 1.90625 0 "/></g></g></g><g fill="#d9d9d9" fill-opacity="1"><g transform="translate(239.510537, 205.642055)"><g><path d="M 1.171875 4.015625 L 5.796875 1.75 C 6.640625 3.144531 8.113281 3.84375 10.21875 3.84375 C 11.195312 3.84375 12.101562 3.53125 12.9375 2.90625 C 13.78125 2.28125 14.203125 1.320312 14.203125 0.03125 L 14.203125 -1.171875 C 13.203125 -0.0664062 11.414062 0.484375 8.84375 0.484375 C 6.488281 0.484375 4.546875 -0.347656 3.015625 -2.015625 C 1.492188 -3.679688 0.734375 -5.722656 0.734375 -8.140625 C 0.734375 -10.566406 1.492188 -12.617188 3.015625 -14.296875 C 4.546875 -15.972656 6.488281 -16.8125 8.84375 -16.8125 C 10.945312 -16.8125 12.695312 -16.160156 14.09375 -14.859375 L 14.203125 -14.859375 L 14.203125 -16.328125 L 19.828125 -16.328125 L 19.828125 0.453125 C 19.828125 3.097656 18.945312 5.140625 17.1875 6.578125 C 15.425781 8.023438 13.101562 8.75 10.21875 8.75 C 5.550781 8.75 2.535156 7.171875 1.171875 4.015625 Z M 7.8125 -10.90625 C 7.082031 -10.1875 6.71875 -9.265625 6.71875 -8.140625 C 6.71875 -7.023438 7.066406 -6.109375 7.765625 -5.390625 C 8.460938 -4.679688 9.382812 -4.328125 10.53125 -4.328125 C 11.632812 -4.328125 12.539062 -4.6875 13.25 -5.40625 C 13.96875 -6.132812 14.328125 -7.046875 14.328125 -8.140625 C 14.328125 -9.265625 13.957031 -10.1875 13.21875 -10.90625 C 12.488281 -11.632812 11.59375 -12 10.53125 -12 C 9.445312 -12 8.539062 -11.632812 7.8125 -10.90625 Z M 7.8125 -10.90625 "/></g></g></g><g fill="#d9d9d9" fill-opacity="1"><g transform="translate(261.239314, 205.642055)"><g><path d="M 18.421875 -7.390625 L 6.59375 -7.390625 C 6.59375 -6.242188 6.960938 -5.394531 7.703125 -4.84375 C 8.441406 -4.289062 9.25 -4.015625 10.125 -4.015625 C 11.03125 -4.015625 11.75 -4.132812 12.28125 -4.375 C 12.8125 -4.625 13.414062 -5.109375 14.09375 -5.828125 L 18.171875 -3.78125 C 16.472656 -0.9375 13.648438 0.484375 9.703125 0.484375 C 7.242188 0.484375 5.132812 -0.359375 3.375 -2.046875 C 1.613281 -3.734375 0.734375 -5.765625 0.734375 -8.140625 C 0.734375 -10.523438 1.613281 -12.566406 3.375 -14.265625 C 5.132812 -15.960938 7.242188 -16.8125 9.703125 -16.8125 C 12.296875 -16.8125 14.398438 -16.0625 16.015625 -14.5625 C 17.640625 -13.0625 18.453125 -10.921875 18.453125 -8.140625 C 18.453125 -7.765625 18.441406 -7.515625 18.421875 -7.390625 Z M 6.75 -10.5 L 12.953125 -10.5 C 12.828125 -11.351562 12.492188 -12.003906 11.953125 -12.453125 C 11.410156 -12.910156 10.710938 -13.140625 9.859375 -13.140625 C 8.929688 -13.140625 8.191406 -12.894531 7.640625 -12.40625 C 7.085938 -11.925781 6.789062 -11.289062 6.75 -10.5 Z M 6.75 -10.5 "/></g></g></g><g fill="#d9d9d9" fill-opacity="1"><g transform="translate(280.422992, 205.642055)"><g><path d="M 1.90625 0 L 1.90625 -16.328125 L 7.546875 -16.328125 L 7.546875 -13.96875 L 7.609375 -13.96875 C 7.648438 -14.050781 7.71875 -14.15625 7.8125 -14.28125 C 7.90625 -14.414062 8.109375 -14.640625 8.421875 -14.953125 C 8.742188 -15.273438 9.085938 -15.5625 9.453125 -15.8125 C 9.816406 -16.070312 10.285156 -16.300781 10.859375 -16.5 C 11.429688 -16.707031 12.015625 -16.8125 12.609375 -16.8125 C 13.222656 -16.8125 13.828125 -16.722656 14.421875 -16.546875 C 15.015625 -16.378906 15.445312 -16.210938 15.71875 -16.046875 L 16.171875 -15.78125 L 13.8125 -11.015625 C 13.113281 -11.609375 12.140625 -11.90625 10.890625 -11.90625 C 10.203125 -11.90625 9.613281 -11.753906 9.125 -11.453125 C 8.644531 -11.160156 8.300781 -10.800781 8.09375 -10.375 C 7.894531 -9.945312 7.753906 -9.582031 7.671875 -9.28125 C 7.585938 -8.988281 7.546875 -8.757812 7.546875 -8.59375 L 7.546875 0 Z M 1.90625 0 "/></g></g></g></svg>